<?xml version="1.0" encoding="UTF-8" standalone="no"?>
<!-- Created with Inkscape (http://www.inkscape.org/) -->

<svg
   xmlns:dc="http://purl.org/dc/elements/1.1/"
   xmlns:cc="http://creativecommons.org/ns#"
   xmlns:rdf="http://www.w3.org/1999/02/22-rdf-syntax-ns#"
   xmlns:svg="http://www.w3.org/2000/svg"
   xmlns="http://www.w3.org/2000/svg"
   xmlns:sodipodi="http://sodipodi.sourceforge.net/DTD/sodipodi-0.dtd"
   xmlns:inkscape="http://www.inkscape.org/namespaces/inkscape"
   width="64.875"
   height="56.46875"
   id="svg2"
   version="1.1"
   inkscape:version="0.48.1 "
   sodipodi:docname="cooperblack.svg">
  <defs
     id="defs4" />
  <sodipodi:namedview
     id="base"
     pagecolor="#ffffff"
     bordercolor="#666666"
     borderopacity="1.0"
     inkscape:pageopacity="0.0"
     inkscape:pageshadow="2"
     inkscape:zoom="0.35"
     inkscape:cx="-662.6886"
     inkscape:cy="-492.70598"
     inkscape:document-units="px"
     inkscape:current-layer="cooperblack-letters"
     showgrid="false"
     inkscape:window-width="1280"
     inkscape:window-height="738"
     inkscape:window-x="-8"
     inkscape:window-y="-8"
     inkscape:window-maximized="0"
     fit-margin-top="0"
     fit-margin-left="0"
     fit-margin-right="0"
     fit-margin-bottom="0" />
  <metadata
     id="metadata7">
    <rdf:RDF>
      <cc:Work
         rdf:about="">
        <dc:format>image/svg+xml</dc:format>
        <dc:type
           rdf:resource="http://purl.org/dc/dcmitype/StillImage" />
        <dc:title />
      </cc:Work>
    </rdf:RDF>
  </metadata>
  <g
     inkscape:label="letters"
     inkscape:groupmode="layer"
     id="cooperblack-letters"
     style="display:inline"
     transform="translate(-367.6886,16.81255)">
    <path
       d="m 417.19444,11.35152 6.64453,14.23828 c 0.63275,1.31251 1.1601,2.17384 1.58203,2.58398 0.42182,0.41017 1.06635,0.68556 1.93359,0.82618 1.68744,0.25781 2.53119,1.11328 2.53125,2.5664 -6e-5,1.71094 -1.03131,2.94141 -3.09375,3.69141 -2.06255,0.75 -5.43755,1.125 -10.125,1.125 -5.29691,0 -9.22269,-0.22266 -11.77734,-0.66797 -1.17191,-0.21094 -2.10355,-0.63867 -2.79492,-1.2832 -0.69144,-0.64453 -1.03714,-1.42383 -1.03711,-2.33789 -3e-5,-0.70312 0.18161,-1.24805 0.54492,-1.63477 0.36325,-0.38671 1.03708,-0.74413 2.02148,-1.07227 1.10153,-0.37499 1.65231,-1.0078 1.65235,-1.89843 -4e-5,-1.57031 -0.94926,-2.49609 -2.84766,-2.77735 -2.03909,-0.28124 -4.91018,-0.42186 -8.61328,-0.42187 -3.11721,10e-6 -4.98049,0.18751 -5.58984,0.5625 -0.37502,0.23438 -0.70315,0.65626 -0.98438,1.26562 -0.28127,0.60939 -0.42189,1.19532 -0.42187,1.75782 -2e-5,0.51563 0.0996,0.84961 0.29882,1.00195 0.1992,0.15235 0.84959,0.4043 1.95118,0.75586 1.42966,0.42188 2.14451,1.26563 2.14453,2.53125 -2e-5,2.78906 -3.33987,4.18359 -10.01953,4.18359 -3.79689,0 -6.58595,-0.25781 -8.36719,-0.77344 -1.64063,-0.49218 -2.46094,-1.57031 -2.46094,-3.23437 0,-0.72656 0.18164,-1.28906 0.54492,-1.6875 0.36328,-0.39843 1.01367,-0.76171 1.95117,-1.08984 1.52344,-0.53906 2.67773,-1.29492 3.46289,-2.26758 0.78515,-0.97265 1.90429,-3.05273 3.35743,-6.24024 l 4.95703,-10.86328 c 1.82811,-3.98434 3.05271,-6.96676 3.67383,-8.94726 0.62107,-1.98044 0.94334,-3.91989 0.96679,-5.81836 0.0234,-2.01559 0.14647,-3.41597 0.36914,-4.20117 0.22264,-0.78512 0.72069,-1.55269 1.49414,-2.30274 1.61717,-1.64058 3.67967,-2.46089 6.1875,-2.46094 2.36716,5e-5 4.62888,0.92583 6.78516,2.77735 2.99996,2.53129 7.35933,9.90238 13.07813,22.11328 z m -24.46875,4.42969 6.89062,0 c 1.26559,2e-5 1.89841,-0.28123 1.89844,-0.84375 -3e-5,-0.77342 -0.87894,-2.67186 -2.63672,-5.69532 -0.7969,-1.38278 -1.40628,-2.30856 -1.82813,-2.77734 -0.4219,-0.46872 -0.86721,-0.7031 -1.33593,-0.70313 -0.84378,3e-5 -1.5469,0.78519 -2.10938,2.35547 -0.0938,0.21097 -0.43362,1.043 -1.01953,2.4961 -0.9844,2.39064 -1.47658,3.82033 -1.47656,4.28906 -2e-5,0.58596 0.53904,0.87893 1.61719,0.87891 z"
       id="cooperblack-letter-a" />
    <path
       d="m 394.76477,35.31045 -4.71093,0.0352 c -3.3047,0.0469 -5.71877,0.11718 -7.24219,0.21093 -1.35938,0.11719 -2.33204,0.17579 -2.91797,0.17579 -1.42969,0 -2.56641,-0.36329 -3.41016,-1.08985 -0.82031,-0.72656 -1.23047,-1.59375 -1.23047,-2.60156 0,-0.65625 0.15235,-1.17187 0.45704,-1.54688 0.30468,-0.37499 1.04296,-0.96093 2.21484,-1.75781 0.67968,-0.46874 1.14843,-1.20116 1.40625,-2.19726 0.25781,-0.99609 0.53906,-3.13476 0.84375,-6.41602 0.4453,-5.10935 0.66796,-11.40232 0.66797,-18.87891 -10e-6,-2.74215 -0.18165,-4.56441 -0.54492,-5.46679 -0.36329,-0.90231 -1.2129,-1.64645 -2.54883,-2.23242 -1.54688,-0.65621 -2.32032,-1.61715 -2.32031,-2.88282 -10e-6,-1.0312 0.46288,-1.87495 1.38867,-2.53125 0.92577,-0.6562 2.11523,-0.98432 3.56836,-0.98437 0.79686,5e-5 1.81639,0.0352 3.05859,0.10547 2.06249,0.0938 4.28905,0.14067 6.67969,0.14062 1.75779,5e-5 5.21482,-0.0703 10.37109,-0.21094 1.61716,-0.0468 3.082,-0.0703 4.39453,-0.0703 3.11716,5e-5 5.63083,0.252 7.54102,0.75586 1.91011,0.50395 3.56832,1.35356 4.97461,2.54883 2.29683,1.94536 3.44526,4.54691 3.44531,7.80469 -5e-5,1.61722 -0.33989,3.19339 -1.01953,4.72851 -0.67973,1.53519 -1.5938,2.7598 -2.74219,3.67383 -0.82035,0.65628 -1.23051,1.25393 -1.23047,1.79297 -4e-5,0.58596 0.49215,1.07815 1.47657,1.47656 1.92183,0.77346 3.66792,2.07424 5.23828,3.90235 1.61713,1.89845 2.42573,4.27736 2.42578,7.13671 -5e-5,3.37502 -1.23052,6.45704 -3.69141,9.2461 -3.25785,3.67969 -8.07426,5.51953 -14.44922,5.51953 -0.86722,0 -3.00003,-0.0586 -6.39843,-0.17578 -3.09378,-0.11719 -4.99221,-0.1875 -5.69532,-0.21094 z m 2.42578,-38.14453 0,7.24219 c -2e-5,1.14846 0.14647,1.95706 0.43946,2.42578 0.29294,0.46878 0.80271,0.70315 1.52929,0.70312 1.73435,3e-5 3.01169,-0.53317 3.83204,-1.59961 0.82028,-1.06637 1.23043,-2.73629 1.23046,-5.00976 -3e-5,-2.20309 -0.4219,-3.90817 -1.26562,-5.11524 -0.84378,-1.20699 -2.03909,-1.8105 -3.58594,-1.81054 -0.82034,4e-5 -1.38869,0.22855 -1.70508,0.68554 -0.31643,0.45708 -0.47463,1.28325 -0.47461,2.47852 z m 0,20.25 0,3.33984 c -2e-5,3.07033 0.22264,5.10939 0.66797,6.11719 0.44529,1.00782 1.34763,1.51173 2.70703,1.51172 3.56247,10e-6 5.34372,-2.08593 5.34375,-6.25781 -3e-5,-5.20311 -1.99221,-7.80467 -5.97656,-7.80469 -1.03127,2e-5 -1.74612,0.22268 -2.14453,0.66797 -0.39846,0.44533 -0.59768,1.25392 -0.59766,2.42578 z"
       id="cooperblack-letter-b" />
    <path
       d="m 402.04212,-13.53911 c 3.42185,5e-5 6.72653,0.75005 9.91407,2.25 1.49996,0.70317 2.54292,1.05473 3.1289,1.05469 0.42183,4e-5 1.10152,-0.10542 2.03906,-0.31641 0.30465,-0.0703 0.64449,-0.10542 1.01954,-0.10547 1.2187,5e-5 2.2851,0.56255 3.19921,1.6875 2.24995,2.71879 3.37495,6.09379 3.375,10.125 -5e-5,2.83597 -0.9727,4.91019 -2.91796,6.22266 -1.05474,0.70315 -2.23833,1.05471 -3.55079,1.05469 -1.19535,2e-5 -2.16801,-0.25779 -2.91796,-0.77344 -0.75005,-0.5156 -1.47661,-1.42966 -2.17969,-2.74219 -1.00785,-1.85153 -1.82816,-3.1816 -2.46094,-3.99023 -0.63285,-0.80856 -1.40629,-1.54098 -2.32031,-2.19727 -2.27347,-1.59371 -4.65238,-2.39058 -7.13672,-2.39062 -2.41409,4e-5 -4.3301,0.87308 -5.74805,2.61914 -1.41799,1.74613 -2.12697,4.08401 -2.12695,7.01367 -2e-5,4.03127 1.01951,7.72268 3.05859,11.07422 2.7656,4.47657 6.72654,6.71485 11.88282,6.71484 1.8984,10e-6 3.77925,-0.31639 5.64257,-0.94922 1.86324,-0.6328 3.31051,-1.45311 4.3418,-2.46093 0.89058,-0.84374 1.61714,-1.26561 2.17969,-1.26563 0.82026,2e-5 1.52339,0.38088 2.10937,1.14258 0.58589,0.76173 0.87886,1.68165 0.87891,2.75976 -5e-5,1.35939 -0.41021,2.88283 -1.23047,4.57032 -0.82036,1.6875 -1.80473,3.01172 -2.95312,3.97265 -0.49224,0.39844 -1.51177,0.75001 -3.0586,1.05469 -0.89067,0.16407 -2.07426,0.59766 -3.55078,1.30078 -3.46879,1.66406 -7.07816,2.49609 -10.82812,2.4961 -3.91409,-1e-5 -7.81643,-0.87891 -11.70704,-2.63672 -4.52345,-2.03906 -8.09766,-5.16796 -10.72265,-9.38672 -2.57813,-4.10155 -3.86719,-8.39061 -3.86719,-12.86719 0,-5.2031 1.61718,-9.94918 4.85156,-14.23828 2.81249,-3.72652 6.48046,-6.57417 11.00391,-8.54297 3.44529,-1.49995 6.99607,-2.24995 10.65234,-2.25 z"
       id="cooperblack-letter-c" />
    <path
       d="m 387.7511,35.626945 -2.53125,0 c -1.47657,0 -3.12891,0.0703 -4.95703,0.21093 -1.14844,0.0937 -1.94532,0.14063 -2.39062,0.14063 -1.57032,0 -2.84766,-0.36328 -3.83203,-1.08984 -0.98438,-0.72657 -1.47657,-1.67578 -1.47657,-2.84766 0,-0.82031 0.2168,-1.45898 0.65039,-1.91602 0.4336,-0.45702 1.14258,-0.82616 2.12696,-1.10742 0.93749,-0.23437 1.5703,-0.61523 1.89844,-1.14258 0.32811,-0.52733 0.58593,-1.55272 0.77343,-3.07617 0.1875,-1.7578 0.35742,-5.17967 0.50977,-10.26562 0.15233,-5.08591 0.22851,-10.13669 0.22851,-15.15235 0,-1.96871 -0.15235,-3.28121 -0.45703,-3.9375 -0.30469,-0.65621 -1.01953,-1.18355 -2.14453,-1.58203 -1.61719,-0.60933 -2.42578,-1.6523 -2.42578,-3.1289 0,-1.1484 0.55664,-2.04488 1.66992,-2.68946 1.11328,-0.64448 2.66601,-0.96675 4.65821,-0.96679 0.65624,4e-5 1.42967,0.0118 2.32031,0.0351 1.96873,0.0704 3.39842,0.10552 4.28906,0.10547 3.35154,5e-5 7.1367,-0.10542 11.35547,-0.31641 0.8906,-0.0468 2.00388,-0.0703 3.33984,-0.0703 5.36715,5e-5 9.60934,0.60943 12.72657,1.82813 4.64057,1.82817 8.13276,4.89848 10.47656,9.21093 2.08588,3.79691 3.12885,8.32035 3.1289,13.57032 -5e-5,2.64846 -0.38677,5.30275 -1.16015,7.96289 -0.77349,2.66017 -1.81646,4.9629 -3.12891,6.9082 -2.7188,3.93751 -6.46879,6.70313 -11.25,8.29688 -2.81254,0.9375 -5.81253,1.40625 -9,1.40625 l -4.2539,-0.14063 -3.65625,-0.10547 c -2.83596,-0.0937 -5.33205,-0.14062 -7.48829,-0.14062 z m 7.38282,-38.10938 0,27.21094 c -3e-5,1.47657 0.31638,2.5254 0.94922,3.14648 0.63278,0.6211 1.68747,0.93165 3.16406,0.93164 6.84371,10e-6 10.26558,-5.20311 10.26562,-15.60937 -4e-5,-5.74216 -0.79691,-10.19528 -2.39062,-13.35938 -1.75785,-3.49214 -4.73441,-5.23824 -8.92969,-5.23828 -1.12503,4e-5 -1.91604,0.2227 -2.37305,0.66797 -0.45705,0.44535 -0.68557,1.19535 -0.68554,2.25 z"
       id="cooperblack-letter-d" />
    <path
       d="m 383.70814,-12.2559 18.07032,0 c 3.65622,4e-5 6.32223,-0.0761 7.99804,-0.22852 1.67575,-0.1523 3.31051,-0.46284 4.9043,-0.93164 0.49215,-0.14058 0.87887,-0.21089 1.16016,-0.21094 1.2187,5e-5 2.29683,0.6563 3.23437,1.96875 1.54683,2.13286 2.32027,4.71098 2.32031,7.73438 -4e-5,1.52347 -0.32231,2.72464 -0.96679,3.60351 -0.64458,0.87894 -1.52934,1.3184 -2.6543,1.31836 -0.77348,4e-5 -1.37699,-0.15817 -1.81055,-0.47461 -0.43363,-0.31637 -1.01371,-1.02535 -1.74023,-2.12695 -1.03129,-1.57027 -2.33793,-2.6191 -3.91992,-3.14648 -1.58207,-0.52731 -4.17777,-0.79098 -7.78711,-0.79102 -2.69534,4e-5 -4.33596,0.48051 -4.92188,1.44141 -0.30471,0.51566 -0.48635,1.20707 -0.54492,2.07421 -0.0586,0.86723 -0.0879,3.08207 -0.0879,6.64454 -2e-5,1.40628 0.23435,2.27932 0.70313,2.61914 0.46872,0.33987 1.69919,0.50979 3.6914,0.50976 0.98435,3e-5 1.69919,-0.20505 2.14453,-0.61523 0.44529,-0.41013 0.72654,-1.14255 0.84375,-2.19727 0.16404,-1.35934 0.33396,-2.29098 0.50977,-2.79492 0.17575,-0.50387 0.49801,-0.94332 0.9668,-1.31836 0.49215,-0.42184 1.06637,-0.63278 1.72265,-0.63281 0.96091,3e-5 1.78122,0.45706 2.46094,1.37109 0.49215,0.67972 0.90817,1.88089 1.24805,3.60352 0.3398,1.72268 0.50972,3.52151 0.50976,5.39648 -4e-5,3.70315 -0.57425,6.7383 -1.72265,9.10547 -0.63285,1.28908 -1.59379,1.93361 -2.88282,1.93359 -0.7969,2e-5 -1.34768,-0.20506 -1.65234,-0.61523 -0.30472,-0.41014 -0.53909,-1.25975 -0.70313,-2.54883 -0.35159,-2.64842 -1.89846,-3.97263 -4.64062,-3.97265 -1.05471,2e-5 -1.77542,0.334 -2.16211,1.00195 -0.38674,0.66799 -0.5801,1.90431 -0.58008,3.70898 -2e-5,1.10158 0.0762,2.52541 0.22852,4.27149 0.15232,1.7461 0.31052,2.9004 0.47461,3.46289 0.18747,0.70313 0.76755,1.18946 1.74023,1.45898 0.97263,0.26954 2.59568,0.40431 4.86914,0.4043 3.51559,1e-5 6.16403,-0.45116 7.94531,-1.35352 1.78121,-0.90233 3.23434,-2.53709 4.35938,-4.90429 0.65621,-1.35936 1.248,-2.27342 1.77539,-2.74219 0.5273,-0.46873 1.21285,-0.70311 2.05664,-0.70313 0.98433,2e-5 1.79878,0.42776 2.44336,1.28321 0.64448,0.85548 0.96675,1.92775 0.9668,3.21679 -5e-5,1.40627 -0.36333,3.16408 -1.08985,5.27344 -0.72661,2.10938 -1.61723,3.98438 -2.67187,5.625 -0.53911,0.79688 -0.98442,1.33008 -1.33594,1.59961 -0.35161,0.26953 -0.79692,0.4043 -1.33594,0.4043 -0.44535,0 -1.08988,-0.0703 -1.93359,-0.21094 -1.50004,-0.28125 -3.50394,-0.45703 -6.01172,-0.52734 l -29.8125,0 c -1.19532,0 -2.1211,-0.26367 -2.77734,-0.79102 -0.65626,-0.52734 -0.98438,-1.27148 -0.98438,-2.23242 0,-0.67968 0.14062,-1.17187 0.42188,-1.47656 0.28124,-0.30469 0.92577,-0.6914 1.93359,-1.16016 0.70312,-0.30468 1.2246,-0.67968 1.56445,-1.125 0.33984,-0.4453 0.60351,-1.10155 0.79102,-1.96875 0.77343,-3.53905 1.16015,-8.30858 1.16016,-14.30859 -10e-6,-9.04685 -0.56251,-14.75387 -1.6875,-17.1211 -0.23439,-0.46871 -0.4922,-0.79683 -0.77344,-0.98437 -0.28126,-0.18746 -0.86719,-0.41012 -1.75781,-0.66797 -1.33594,-0.3984 -2.00391,-1.28902 -2.00391,-2.67188 0,-0.74995 0.22265,-1.41792 0.66797,-2.0039 0.44531,-0.58589 1.03124,-0.97261 1.75781,-1.16016 0.91406,-0.21089 2.68359,-0.31636 5.30859,-0.3164 z"
       id="cooperblack-letter-e" />
    <path
       d="m 402.78034,-5.38287 c -1.61721,4e-5 -2.6133,0.4102 -2.98828,1.23047 -0.28127,0.60942 -0.54495,1.80473 -0.79102,3.58594 -0.24611,1.78128 -0.36916,3.39847 -0.36914,4.85156 -2e-5,0.86722 0.28123,1.46488 0.84375,1.79297 0.56248,0.32815 1.61717,0.49222 3.16407,0.49219 1.03122,3e-5 1.79294,-0.18747 2.28515,-0.5625 0.49216,-0.37497 0.832,-1.00778 1.01953,-1.89844 0.53904,-2.55465 1.6406,-3.832 3.30469,-3.83203 2.85934,3e-5 4.28903,3.42191 4.28906,10.26562 -3e-5,4.33596 -0.62113,7.52346 -1.86328,9.5625 -0.75003,1.24221 -1.78128,1.8633 -3.09375,1.86329 -1.38284,1e-5 -2.17972,-0.92577 -2.39062,-2.77735 -0.11722,-1.19529 -0.2637,-2.03904 -0.43946,-2.53125 -0.17581,-0.49217 -0.50979,-0.96092 -1.00195,-1.40625 -0.77346,-0.72654 -1.89846,-1.08982 -3.375,-1.08984 -1.05471,2e-5 -1.76955,0.18752 -2.14453,0.5625 -0.37502,0.37502 -0.53909,1.08986 -0.49219,2.14453 -2e-5,0.18752 -0.0117,1.27736 -0.0351,3.26953 -3e-5,4.0547 0.42185,6.52735 1.26562,7.41797 0.28123,0.35157 0.56834,0.58008 0.86133,0.68555 0.29294,0.10547 1.06052,0.25196 2.30273,0.43945 0.60935,0.0938 1.12498,0.41016 1.54688,0.94922 0.42184,0.53907 0.63278,1.16016 0.63281,1.86328 -3e-5,1.80469 -1.05471,2.96484 -3.16406,3.48047 -3.0469,0.72656 -7.32424,1.08984 -12.83203,1.08984 -4.82814,0 -8.15626,-0.28125 -9.98438,-0.84375 -0.82031,-0.25781 -1.48828,-0.72656 -2.0039,-1.40625 -0.51563,-0.67968 -0.77344,-1.42968 -0.77344,-2.25 0,-1.03124 0.375,-1.86327 1.125,-2.49609 0.1875,-0.14062 0.83203,-0.43359 1.93359,-0.87891 1.3125,-0.51562 2.09765,-1.71093 2.35547,-3.58594 0.42187,-2.88279 0.63281,-9.45701 0.63281,-19.72265 0,-4.42965 -0.15235,-7.30075 -0.45703,-8.61328 -0.30469,-1.31246 -1.04297,-2.22652 -2.21484,-2.74219 -1.17188,-0.51558 -1.93946,-0.96675 -2.30274,-1.35352 -0.36328,-0.38667 -0.54492,-0.94331 -0.54492,-1.66992 0,-1.0312 0.50391,-1.89253 1.51172,-2.58398 1.00781,-0.69136 2.25,-1.03706 3.72656,-1.03711 0.9375,5e-5 2.30859,0.0704 4.11329,0.21094 3.82029,0.30473 8.3906,0.45707 13.71093,0.45703 8.50778,4e-5 14.23824,-0.23433 17.19141,-0.70313 0.39839,-0.0468 0.70308,-0.0703 0.91406,-0.0703 0.82027,5e-5 1.60543,0.4688 2.35547,1.40625 2.06245,2.62504 3.0937,5.53129 3.09375,8.71875 -5e-5,1.45316 -0.33989,2.61332 -1.01953,3.48047 -0.67974,0.86722 -1.57036,1.30081 -2.67188,1.30078 -0.82035,3e-5 -1.44145,-0.16403 -1.86328,-0.49219 -0.42191,-0.32809 -1.50004,-1.47652 -3.23437,-3.44531 -1.05473,-1.21871 -2.32621,-2.01559 -3.81446,-2.39063 -1.48831,-0.37496 -4.25979,-0.62105 -8.31445,-0.73828 z"
       id="cooperblack-letter-f" />
    <path
       d="m 399.49329,-13.53913 c 3.07028,5e-5 5.96481,0.43364 8.6836,1.30078 1.21871,0.39849 2.05074,0.59771 2.49609,0.59766 0.46871,5e-5 1.45308,-0.26949 2.95312,-0.8086 0.49215,-0.16401 0.99605,-0.24604 1.51172,-0.24609 1.31246,5e-5 2.56636,0.77349 3.76172,2.32031 1.92183,2.48442 2.88276,5.20317 2.88281,8.15625 -5e-5,2.01566 -0.50981,3.64457 -1.52929,4.88672 -1.01958,1.24222 -2.36138,1.86331 -4.02539,1.86328 -1.35942,3e-5 -2.69536,-0.49215 -4.00782,-1.47656 -0.39847,-0.30465 -1.37113,-1.40622 -2.91796,-3.30469 -2.57817,-3.16402 -5.54301,-4.74605 -8.89454,-4.74609 -3.0469,4e-5 -5.46682,1.11332 -7.25976,3.33984 -1.79299,2.2266 -2.68947,5.2266 -2.68945,9 -2e-5,5.60159 1.42966,10.37111 4.28906,14.3086 1.0781,1.4297 2.36716,2.57227 3.86719,3.42773 1.49997,0.85548 2.98825,1.28321 4.46484,1.2832 1.21872,10e-6 2.22067,-0.40428 3.00586,-1.21289 0.78512,-0.80858 1.1777,-1.84569 1.17773,-3.11132 -3e-5,-1.12499 -0.32816,-1.92186 -0.98437,-2.39063 -0.25785,-0.18748 -0.49808,-0.29881 -0.72071,-0.33398 -0.22269,-0.0351 -0.89651,-0.0527 -2.02148,-0.0527 -1.00784,2e-5 -1.84573,-0.32225 -2.51367,-0.96679 -0.668,-0.64452 -1.00198,-1.45897 -1.00195,-2.44336 -3e-5,-1.9453 1.28903,-3.32811 3.86718,-4.14844 2.8359,-0.8906 6.10543,-1.33591 9.8086,-1.33594 3.96089,3e-5 7.28901,0.41018 9.98437,1.23047 2.55463,0.7969 3.83198,2.2383 3.83203,4.32422 -5e-5,0.84377 -0.29302,1.57619 -0.8789,2.19726 -0.586,0.62111 -1.34771,0.99025 -2.28516,1.10743 -0.82036,0.1172 -1.35357,0.29884 -1.59961,0.54492 -0.24614,0.24611 -0.4981,0.84962 -0.75586,1.81054 -1.00786,3.72658 -2.97661,6.84376 -5.90625,9.35157 -2.01567,1.71094 -4.4473,3.04687 -7.29492,4.00781 -2.84769,0.96094 -5.84183,1.4414 -8.98242,1.44141 -5.13284,-1e-5 -9.84377,-1.1836 -14.13281,-3.55079 -4.40627,-2.41405 -7.75782,-5.78905 -10.05469,-10.125 -1.92188,-3.60935 -2.88282,-7.51169 -2.88281,-11.70703 -1e-5,-4.24216 1.14843,-8.2734 3.44531,-12.09375 2.43749,-4.10152 5.84764,-7.26558 10.23047,-9.49218 3.82029,-1.96871 8.17966,-2.95308 13.07812,-2.95313 z"
       id="cooperblack-letter-g" />
    <path
       d="m 387.80384,-13.31059 c 7.31247,5e-5 10.96872,1.51176 10.96875,4.53515 -3e-5,0.82036 -0.18753,1.48833 -0.5625,2.00391 -0.37503,0.51567 -1.08987,1.08989 -2.14453,1.72266 -0.91409,0.56254 -1.49417,1.30082 -1.74024,2.21484 -0.24611,0.9141 -0.36916,2.76566 -0.36914,5.55469 -2e-5,1.64065 0.30467,2.64847 0.91406,3.02344 0.35154,0.2344 0.88474,0.37503 1.59961,0.42187 0.71482,0.0469 2.39646,0.0703 5.04493,0.0703 2.41402,3e-5 3.91402,-0.12887 4.5,-0.38672 0.5859,-0.25778 0.87887,-0.90231 0.8789,-1.93359 -3e-5,-3.09371 -0.14066,-5.24996 -0.42187,-6.46875 -0.28129,-1.21871 -0.83207,-2.05074 -1.65235,-2.49609 -1.03128,-0.5859 -1.71097,-1.08395 -2.03906,-1.49414 -0.32816,-0.41012 -0.49222,-0.95504 -0.49219,-1.63477 -3e-5,-0.96089 0.36325,-1.83394 1.08985,-2.61914 0.72653,-0.78511 1.67574,-1.31831 2.84765,-1.59961 2.43747,-0.58589 5.49606,-0.87886 9.17578,-0.87891 4.31246,5e-5 7.49409,0.39263 9.54493,1.17774 2.05072,0.7852 3.07611,2.00981 3.07617,3.67383 -6e-5,1.40629 -0.72662,2.46098 -2.17969,3.16406 -0.91412,0.42191 -1.51177,0.82621 -1.79297,1.21289 -0.2813,0.38676 -0.50396,1.10746 -0.66797,2.16211 -0.0938,0.58597 -0.21099,3.18753 -0.35156,7.80469 -0.14068,4.61721 -0.21099,8.28517 -0.21094,11.0039 -5e-5,4.75783 0.17573,7.78126 0.52735,9.07032 0.18744,0.70313 0.39838,1.17188 0.63281,1.40625 0.23432,0.23438 0.9726,0.70313 2.21484,1.40625 0.89057,0.49219 1.33588,1.24219 1.33594,2.25 -6e-5,1.78125 -1.0606,3.07617 -3.18164,3.88476 -2.12115,0.80859 -5.5606,1.21289 -10.31836,1.21289 -4.17191,0 -7.25394,-0.41015 -9.24609,-1.23047 -1.80472,-0.75 -2.70707,-1.91015 -2.70703,-3.48047 -4e-5,-1.33593 0.69137,-2.3789 2.07421,-3.1289 0.67966,-0.37499 1.14255,-0.74999 1.38868,-1.125 0.24605,-0.37499 0.48629,-1.0664 0.7207,-2.07422 0.42184,-1.96874 0.63278,-4.3828 0.63281,-7.24219 -3e-5,-1.47654 -0.21683,-2.3906 -0.65039,-2.74219 -0.43363,-0.35154 -1.56449,-0.52732 -3.39258,-0.52734 -4.19534,2e-5 -6.86721,0.2344 -8.01562,0.70313 -0.46878,0.18752 -0.76174,0.7383 -0.87891,1.65234 -0.14065,1.12502 -0.21096,2.50783 -0.21094,4.14844 -2e-5,2.67188 0.37498,4.59376 1.125,5.76562 0.25779,0.37501 0.86717,0.85548 1.82813,1.44141 0.98435,0.5625 1.47653,1.48829 1.47656,2.77734 -3e-5,1.64063 -1.13674,2.89453 -3.41015,3.76172 -2.27346,0.86719 -5.51955,1.30078 -9.73829,1.30078 -3.84376,0 -6.98438,-0.39844 -9.42187,-1.19531 -1.05469,-0.35156 -1.88086,-0.84961 -2.47852,-1.49414 -0.59765,-0.64453 -0.89648,-1.35351 -0.89648,-2.12695 0,-0.77344 0.1875,-1.37109 0.5625,-1.79297 0.375,-0.42187 1.19531,-0.96093 2.46094,-1.61719 0.65624,-0.32812 1.11913,-0.74999 1.38867,-1.26563 0.26952,-0.51561 0.4746,-1.3828 0.61523,-2.60156 0.35156,-2.74217 0.52734,-6.32811 0.52735,-10.75781 -1e-5,-0.82029 -0.0117,-1.79295 -0.0352,-2.91797 -0.0938,-5.62497 -0.14063,-8.8359 -0.14062,-9.63281 0.0234,-2.01559 -0.1465,-3.34567 -0.50977,-3.99024 -0.36329,-0.64449 -1.31836,-1.35347 -2.86523,-2.12695 -1.03126,-0.49215 -1.54688,-1.23043 -1.54688,-2.21484 0,-2.36715 2.29687,-4.00777 6.89063,-4.92188 2.67186,-0.53901 5.41404,-0.80854 8.22656,-0.80859 z"
       id="cooperblack-letter-h" />
    <path
       d="m 401.70814,-13.29302 c 2.67186,5e-5 5.19138,0.23443 7.55859,0.70313 3.18748,0.63286 4.78122,1.98051 4.78125,4.04297 -3e-5,0.67973 -0.15823,1.18949 -0.47461,1.5293 -0.31643,0.33988 -1.11916,0.83793 -2.4082,1.49414 -1.07815,0.5391 -1.78713,1.72269 -2.12695,3.55078 -0.33987,1.82816 -0.50979,5.39065 -0.50977,10.6875 -2e-5,8.95314 0.22264,14.4961 0.66797,16.6289 0.16404,0.6797 0.41599,1.20118 0.75586,1.56446 0.33982,0.36329 0.93162,0.75586 1.77539,1.17773 1.54685,0.70313 2.32028,1.72266 2.32031,3.05859 -3e-5,1.87501 -1.42971,3.16407 -4.28906,3.86719 -3.09377,0.75 -6.87892,1.125 -11.35547,1.125 -7.64063,0 -11.46094,-1.45312 -11.46093,-4.35937 -10e-6,-1.05469 0.74999,-2.03906 2.25,-2.95313 1.14843,-0.70312 1.82811,-1.66405 2.03906,-2.88281 0.4453,-2.67186 0.66796,-8.34373 0.66797,-17.01563 -10e-6,-5.99996 -0.3047,-9.84371 -0.91407,-11.53125 -0.32813,-0.96089 -1.11328,-1.82808 -2.35546,-2.60156 -0.96094,-0.63277 -1.60548,-1.16011 -1.9336,-1.58203 -0.32812,-0.42183 -0.49219,-0.96089 -0.49219,-1.61719 0,-1.00776 0.48633,-1.8105 1.45899,-2.4082 0.97265,-0.59761 2.68945,-1.13081 5.15039,-1.59961 2.92968,-0.58589 5.89452,-0.87886 8.89453,-0.87891 z"
       id="cooperblack-letter-i" />
    <path
       d="m 408.45813,-13.41607 c 2.62497,5e-5 5.29684,0.23443 8.01563,0.70313 2.22652,0.37505 3.82027,0.89067 4.78125,1.54687 0.96089,0.6563 1.44136,1.55864 1.4414,2.70704 -4e-5,0.7266 -0.17582,1.29496 -0.52734,1.70507 -0.35161,0.4102 -1.11333,0.90825 -2.28516,1.49414 -1.35941,0.70317 -2.13871,1.52934 -2.33789,2.47852 -0.19926,0.94926 -0.3809,4.6348 -0.54492,11.05664 -0.0703,6.21096 -0.1348,9.93752 -0.19336,11.17969 -0.0586,1.2422 -0.20512,2.44923 -0.43945,3.62109 -0.67973,3.42189 -2.05082,6.10548 -4.11328,8.05078 -1.68754,1.59376 -3.8555,2.84766 -6.50391,3.76172 -2.64846,0.91406 -5.43752,1.37109 -8.36719,1.3711 -2.60158,-1e-5 -5.209,-0.33985 -7.82226,-1.01954 -2.61329,-0.67968 -4.88087,-1.61718 -6.80274,-2.8125 -1.59375,-0.98437 -2.85937,-2.31444 -3.79687,-3.99023 -0.9375,-1.67577 -1.40625,-3.46288 -1.40625,-5.36133 0,-2.34373 0.73828,-4.28318 2.21484,-5.81836 1.47656,-1.53513 3.32812,-2.30271 5.55469,-2.30273 2.17968,2e-5 4.03124,0.64455 5.55469,1.93359 1.52342,1.31252 2.28514,2.92971 2.28515,4.85156 -1e-5,0.49221 -0.14064,1.31252 -0.42187,2.46094 -0.0469,0.23439 -0.0703,0.4922 -0.0703,0.77344 -2e-5,0.75001 0.26951,1.35938 0.80859,1.82812 0.53905,0.46876 1.25389,0.70314 2.14453,0.70313 1.57029,10e-6 2.83592,-0.70312 3.79688,-2.10938 0.96091,-1.40623 1.44138,-3.25779 1.4414,-5.55468 l -0.0352,-3.19922 -0.0703,-8.61328 c -0.21096,-5.22653 -0.36916,-8.3027 -0.47461,-9.22852 -0.10549,-0.92574 -0.36916,-1.6816 -0.79101,-2.26758 -0.35159,-0.46871 -0.66213,-0.77339 -0.93164,-0.91406 -0.26955,-0.14058 -1.00198,-0.36324 -2.19727,-0.66797 -0.56252,-0.11714 -1.04298,-0.44527 -1.4414,-0.98437 -0.39846,-0.53902 -0.59768,-1.11324 -0.59766,-1.72266 -2e-5,-1.26558 0.49803,-2.27925 1.49414,-3.04101 0.99607,-0.76168 2.61912,-1.37691 4.86914,-1.84571 2.50779,-0.51557 5.09763,-0.77339 7.76953,-0.77344 z"
       id="cooperblack-letter-j" />
    <path
       d="m 411.93859,-2.95708 -3.76171,3.6211 c -1.38285,1.31253 -2.07426,2.50784 -2.07422,3.58593 -4e-5,0.58597 0.15816,1.17191 0.47461,1.75782 0.31637,0.58596 0.90816,1.38284 1.77539,2.39062 l 13.14843,15.22266 c 1.17183,1.35938 1.98042,2.22071 2.42579,2.58398 0.44525,0.36329 1.11322,0.74415 2.0039,1.14258 1.26557,0.53907 2.16205,1.13673 2.68945,1.79297 0.52729,0.65625 0.79096,1.51172 0.79102,2.5664 -6e-5,2.48438 -1.76959,3.72657 -5.30859,3.72657 l -13.32422,0 c -0.9141,0 -1.63481,-0.19922 -2.16211,-0.59766 -0.52738,-0.39844 -1.36527,-1.38281 -2.51367,-2.95312 -1.82816,-2.50781 -4.24222,-5.39062 -7.24219,-8.64844 -1.31253,-1.40624 -2.23245,-2.32616 -2.75977,-2.75977 -0.52737,-0.43358 -1.01369,-0.65037 -1.45898,-0.65039 -1.3594,2e-5 -2.03909,1.27736 -2.03906,3.83203 -3e-5,2.08595 0.44529,3.52736 1.33594,4.32422 0.16403,0.1172 0.53903,0.37501 1.125,0.77344 1.26559,0.82032 1.89841,1.83985 1.89843,3.05859 -2e-5,1.54688 -1.03127,2.6543 -3.09375,3.32227 -2.06252,0.66797 -5.53127,1.00195 -10.40625,1.00195 -4.33594,0 -7.5,-0.25781 -9.49218,-0.77344 -0.84376,-0.23437 -1.5293,-0.6621 -2.05665,-1.2832 -0.52734,-0.62109 -0.79101,-1.31836 -0.79101,-2.0918 0,-1.24218 0.70312,-2.30858 2.10937,-3.19921 0.63281,-0.42187 1.08398,-0.88476 1.35352,-1.38868 0.26953,-0.50389 0.52148,-1.3535 0.75586,-2.54882 0.46874,-2.64843 0.70312,-6.72655 0.70312,-12.23438 0,-6.56247 -0.2461,-11.21481 -0.73828,-13.95703 -0.1875,-1.12496 -0.44531,-1.93356 -0.77343,-2.42578 -0.32813,-0.49215 -0.90235,-0.97262 -1.72266,-1.44141 -1.3125,-0.74996 -1.96875,-1.79292 -1.96875,-3.1289 0,-1.12496 0.41015,-2.0273 1.23047,-2.70704 0.82031,-0.67964 2.13281,-1.19526 3.9375,-1.54687 2.39061,-0.4687 5.39061,-0.70308 9,-0.70313 3.67967,5e-5 6.41013,0.35162 8.1914,1.05469 1.59373,0.6563 2.3906,1.82817 2.39063,3.51563 -3e-5,0.70317 -0.12307,1.24809 -0.36914,1.63476 -0.24612,0.38676 -0.88479,0.99028 -1.91602,1.81055 -0.37502,0.32816 -0.72072,1.11332 -1.03711,2.35547 -0.31643,1.24222 -0.47463,2.46097 -0.47461,3.65625 -2e-5,1.96878 0.44529,2.95316 1.33594,2.95312 0.53904,4e-5 1.06052,-0.23434 1.56445,-0.70312 0.50389,-0.46872 1.51756,-1.64059 3.04102,-3.51563 1.75778,-2.17965 2.63669,-3.66793 2.63672,-4.46484 -3e-5,-0.42183 -0.22269,-1.05465 -0.66797,-1.89844 -0.30472,-0.58589 -0.45706,-1.12495 -0.45703,-1.61719 -3e-5,-1.73432 0.93747,-2.95893 2.8125,-3.67382 1.87496,-0.7148 5.07418,-1.07222 9.59765,-1.07227 3.60933,5e-5 6.28121,0.23442 8.01563,0.70313 2.13276,0.58598 3.19917,1.82817 3.19922,3.72656 -5e-5,0.75004 -0.22271,1.44731 -0.66797,2.0918 -0.44536,0.64457 -0.99615,1.06058 -1.65234,1.24804 -0.49224,0.16411 -1.62896,0.25786 -3.41016,0.28125 -1.24223,0.0235 -2.17387,0.16996 -2.79492,0.43946 -0.62114,0.26957 -1.42387,0.87308 -2.40821,1.81054 z"
       id="cooperblack-letter-k" />
    <path
       d="m 400.65344,2.66792 0,16.13672 c -2e-5,3.63282 0.31639,5.97657 0.94922,7.03125 0.77341,1.24219 2.40232,1.86328 4.88672,1.86328 2.67184,0 4.78122,-0.58593 6.32813,-1.75782 1.54683,-1.17186 2.62496,-2.99998 3.23437,-5.48437 0.35152,-1.52342 1.1484,-2.28514 2.39063,-2.28516 1.24214,2e-5 2.25581,0.55666 3.04101,1.66993 0.78511,1.11329 1.17769,2.56055 1.17774,4.34179 -5e-5,2.90626 -1.07817,6.01173 -3.23438,9.31641 -0.67973,1.05469 -1.27738,1.77539 -1.79297,2.16211 -0.51566,0.38672 -1.13676,0.58007 -1.86328,0.58008 l -7.80469,-0.94922 -24.57422,0 c -1.61719,0 -2.75391,-0.1875 -3.41015,-0.5625 -0.96094,-0.53906 -1.44141,-1.34766 -1.44141,-2.42578 0,-0.65625 0.1582,-1.14258 0.47461,-1.45899 0.3164,-0.3164 1.08398,-0.76757 2.30274,-1.35351 1.33593,-0.63281 2.1914,-1.52343 2.5664,-2.67188 0.30468,-0.96093 0.45703,-3.76171 0.45703,-8.40234 0,-2.15623 -0.0586,-5.2617 -0.17578,-9.31641 -0.11719,-3.89059 -0.18751,-6.82028 -0.21094,-8.78906 0,-1.87496 -0.14649,-3.15817 -0.43945,-3.84961 -0.29297,-0.69137 -0.90821,-1.18941 -1.8457,-1.49414 -1.54688,-0.53902 -2.53125,-0.97262 -2.95313,-1.30078 -0.75,-0.5859 -1.125,-1.25387 -1.125,-2.00391 0,-1.71089 1.41797,-3.01167 4.25391,-3.90234 2.41405,-0.77339 5.64843,-1.16011 9.70312,-1.16016 4.54686,5e-5 7.94529,0.23442 10.19532,0.70313 2.90622,0.63286 4.35934,1.89848 4.35937,3.79687 -3e-5,0.77348 -0.19339,1.3477 -0.58008,1.72266 -0.38674,0.37504 -1.3301,0.87894 -2.83007,1.51172 -0.89065,0.39847 -1.45315,1.07816 -1.6875,2.03906 -0.2344,0.96097 -0.35159,3.05863 -0.35157,6.29297 z"
       id="cooperblack-letter-l" />
    <path
       d="m 404.52064,20.86128 -4.21875,9.45703 c -0.7266,1.59375 -1.31253,2.66602 -1.75782,3.2168 -0.44534,0.55078 -0.93753,0.82617 -1.47656,0.82617 -0.51565,0 -0.97268,-0.22266 -1.37109,-0.66797 -0.25784,-0.28125 -0.84964,-1.3125 -1.77539,-3.09375 -0.92581,-1.78124 -1.69339,-3.36327 -2.30274,-4.74609 l -4.64062,-10.44141 c -0.63283,-1.4531 -1.3008,-2.17966 -2.00391,-2.17969 -0.75001,3e-5 -1.16017,0.62112 -1.23047,1.86328 -0.16408,2.76565 -0.24611,5.32033 -0.24609,7.66407 -2e-5,2.43751 0.11717,4.08985 0.35156,4.95703 0.16405,0.51563 0.38084,0.89063 0.65039,1.125 0.26952,0.23438 1.00194,0.65625 2.19727,1.26562 0.77342,0.39845 1.16013,1.08985 1.16015,2.07422 -2e-5,2.625 -3.36329,3.9375 -10.08984,3.9375 -5.67188,0 -8.50781,-1.27734 -8.50781,-3.83203 0,-0.65625 0.14648,-1.13085 0.43945,-1.42383 0.29297,-0.29296 1.04883,-0.73241 2.26758,-1.31836 0.77343,-0.35155 1.29492,-0.83202 1.56445,-1.4414 0.26953,-0.60937 0.49804,-1.79296 0.68555,-3.55078 0.21093,-1.87499 0.41015,-4.95116 0.59765,-9.22852 0.1875,-4.27732 0.28125,-7.93942 0.28125,-10.98633 0,-3.82028 -0.29297,-6.41012 -0.8789,-7.76953 -0.21094,-0.46871 -0.45118,-0.82027 -0.7207,-1.05469 -0.26954,-0.23433 -0.77931,-0.53902 -1.5293,-0.91406 -1.66407,-0.79683 -2.4961,-1.82808 -2.4961,-3.09375 0,-0.82027 0.31055,-1.57027 0.93165,-2.25 0.62109,-0.67964 1.44726,-1.16011 2.47851,-1.44141 1.03125,-0.30464 2.4082,-0.56831 4.13086,-0.79101 1.72265,-0.22261 3.18163,-0.33394 4.37695,-0.33399 2.99999,5e-5 5.12108,0.24615 6.36328,0.73829 0.60936,0.23442 1.08983,0.55082 1.44141,0.94921 0.35154,0.39849 0.85545,1.2188 1.51172,2.46094 l 7.3125,13.46485 c 0.79684,1.47659 1.34762,2.37893 1.65234,2.70703 0.30466,0.32815 0.72653,0.49221 1.26563,0.49218 0.46872,3e-5 0.88473,-0.17575 1.24805,-0.52734 0.36324,-0.35153 0.79098,-1.00778 1.2832,-1.96875 l 4.95703,-9.66797 c 0.60933,-1.24214 1.00777,-2.05074 1.19531,-2.42578 1.1484,-2.3437 2.28511,-3.9023 3.41016,-4.67578 1.42964,-1.00776 4.0312,-1.51167 7.80469,-1.51172 6.63275,5e-5 9.94915,1.51177 9.94921,4.53516 -6e-5,0.67973 -0.12896,1.22465 -0.38671,1.63476 -0.25788,0.4102 -0.78522,0.90825 -1.58204,1.49414 -1.07818,0.82036 -1.75787,2.00395 -2.03906,3.55078 -0.53912,3.23441 -0.80865,7.17191 -0.80859,11.8125 -6e-5,5.97659 0.28119,11.21486 0.84375,15.71485 0.14056,1.10157 0.35736,1.85157 0.65039,2.25 0.29291,0.39844 1.04877,0.9961 2.26758,1.79297 0.84368,0.5625 1.26556,1.3125 1.26562,2.25 -6e-5,1.64062 -1.0899,2.80078 -3.26953,3.48047 -1.12506,0.375 -2.30865,0.62109 -3.55078,0.73828 -1.24224,0.11718 -3.1524,0.17578 -5.73047,0.17578 -3.96098,0 -6.9141,-0.28125 -8.85937,-0.84375 -2.15629,-0.63281 -3.23442,-1.71094 -3.23438,-3.23438 -4e-5,-0.56249 0.14059,-1.02538 0.42188,-1.38867 0.28121,-0.36327 1.00777,-1.02538 2.17968,-1.98633 0.60934,-0.49218 1.02535,-1.44139 1.24805,-2.84765 0.22261,-1.40624 0.33394,-3.79686 0.33398,-7.17188 -4e-5,-1.87498 -0.0879,-3.10545 -0.26367,-3.6914 -0.17582,-0.58592 -0.54496,-0.87889 -1.10742,-0.87891 -0.65629,2e-5 -1.2891,0.45119 -1.89844,1.35352 -0.60941,0.90236 -1.52347,2.70118 -2.74218,5.39648 z"
       id="cooperblack-letter-m" />
    <path
       d="m 391.02061,-10.88481 17.50781,15.32812 c 1.64059,1.42972 2.82418,2.14456 3.55078,2.14453 1.21871,3e-5 1.82809,-1.30075 1.82813,-3.90234 -4e-5,-2.95309 -0.17582,-4.96871 -0.52734,-6.04688 -0.35161,-1.07808 -1.08989,-1.88667 -2.21485,-2.42578 -0.9141,-0.44527 -1.55863,-0.91988 -1.93359,-1.42383 -0.37504,-0.50386 -0.56254,-1.15425 -0.5625,-1.95117 -4e-5,-1.9687 1.34762,-3.23433 4.04297,-3.79687 1.10152,-0.23433 3.02339,-0.35152 5.76562,-0.35157 3.53901,5e-5 5.98823,0.21099 7.34766,0.63282 2.15619,0.65629 3.23431,1.89848 3.23437,3.72656 -6e-5,1.52348 -0.87896,2.67192 -2.63672,3.44531 -0.70318,0.30473 -1.18364,0.57426 -1.4414,0.8086 -0.25787,0.23441 -0.48052,0.58597 -0.66797,1.05468 -0.63287,1.54692 -0.96099,4.4766 -0.98438,8.78907 l 0,11.46093 c -5e-5,1.75783 0.0117,4.16017 0.0352,7.20703 0.0234,4.12501 -0.2227,7.10157 -0.73828,8.92969 -0.63286,2.27344 -1.7813,3.41016 -3.44531,3.41016 -0.72661,0 -1.35356,-0.15235 -1.88086,-0.45703 -0.52739,-0.30469 -1.40043,-1.00781 -2.61914,-2.10938 L 393.83315,14.91987 c -1.45315,-1.31247 -2.66018,-1.96872 -3.62109,-1.96875 -1.42971,3e-5 -2.14455,1.98049 -2.14453,5.94141 -2e-5,3.25783 0.18162,5.48439 0.54492,6.67969 0.36326,1.19532 1.1074,2.07422 2.23242,2.63672 1.57029,0.77344 2.35545,1.78125 2.35547,3.02343 -2e-5,3.25782 -3.50393,4.88672 -10.51172,4.88672 -3.16407,0 -5.61915,-0.41601 -7.36523,-1.24804 -1.7461,-0.83203 -2.61915,-2.00977 -2.61915,-3.53321 0,-0.79687 0.16406,-1.39452 0.49219,-1.79297 0.32812,-0.39843 1.0664,-0.93749 2.21485,-1.61718 1.10155,-0.65625 1.76952,-1.8164 2.0039,-3.48047 0.39843,-3.02343 0.59765,-7.37108 0.59766,-13.04297 -10e-6,-6.04685 -0.35157,-10.45309 -1.05469,-13.21875 -0.25782,-1.00778 -0.58594,-1.75778 -0.98437,-2.25 -0.39845,-0.49215 -1.0547,-0.9609 -1.96875,-1.40625 -1.05469,-0.51559 -1.78712,-1.01949 -2.19727,-1.51172 -0.41016,-0.49215 -0.61523,-1.0898 -0.61523,-1.79297 0,-2.24995 1.93359,-3.66792 5.80078,-4.25391 1.31249,-0.18745 3.60936,-0.2812 6.89062,-0.28125 1.87499,5e-5 3.24022,0.14654 4.09571,0.43946 0.85545,0.29301 1.86912,0.95512 3.04101,1.98633 z"
       id="cooperblack-letter-n" />
    <path
       d="m 400.49524,-13.53911 c 6.0234,5e-5 11.28512,1.7227 15.78516,5.16797 3.04682,2.36723 5.51948,5.43754 7.41797,9.21094 1.8515,3.75003 2.77728,7.50002 2.77734,11.25 -6e-5,5.53126 -1.82818,10.47657 -5.48438,14.83593 -3.09379,3.70313 -7.13676,6.36329 -12.1289,7.98047 -3.07035,0.98438 -6.15238,1.47656 -9.2461,1.47657 -4.05471,-1e-5 -7.93361,-0.84375 -11.63672,-2.53125 -4.47657,-2.03906 -7.98047,-5.12109 -10.51172,-9.2461 -2.46094,-3.98436 -3.6914,-8.37888 -3.6914,-13.18359 0,-5.5781 1.58203,-10.49997 4.74609,-14.76563 2.81249,-3.79683 6.59765,-6.58589 11.35547,-8.36718 3.18748,-1.21871 6.72654,-1.82808 10.61719,-1.82813 z m -3.33985,10.08984 c -1.96877,4e-5 -3.52736,0.87895 -4.67578,2.63672 -0.89064,1.31254 -1.33595,2.87113 -1.33593,4.67578 -2e-5,2.64847 0.53904,5.71292 1.61718,9.19336 1.07811,3.48049 2.43748,6.56838 4.07813,9.26368 0.72654,1.14845 1.62302,2.06251 2.68945,2.74218 1.06638,0.6797 2.15036,1.01954 3.25196,1.01953 1.78121,10e-6 3.21676,-0.66795 4.30664,-2.0039 1.0898,-1.33593 1.63473,-3.09374 1.63476,-5.27344 -3e-5,-2.83592 -0.45706,-5.89451 -1.37109,-9.17578 -0.9141,-3.28122 -2.09769,-6.082 -3.55078,-8.40234 -0.89066,-1.42966 -1.92191,-2.55465 -3.09375,-3.375 -1.1719,-0.82028 -2.3555,-1.25387 -3.55079,-1.30079 z"
       id="cooperblack-letter-o" />
    <path
       d="m 382.79407,18.716755 0,-18.49218 c -10e-6,-2.39059 -0.16407,-3.90817 -0.49219,-4.55274 -0.32813,-0.64449 -1.21875,-1.16597 -2.67187,-1.56445 -2.10938,-0.60933 -3.16407,-1.66402 -3.16407,-3.16406 0,-1.05465 0.44531,-1.86324 1.33594,-2.42579 0.89062,-0.56245 2.17968,-0.8437 3.86719,-0.84375 0.56249,5e-5 1.95702,0.0352 4.18359,0.10547 l 2.10938,0 c 3.89061,-0.0234 6.1699,-0.0527 6.83789,-0.0879 0.66795,-0.0351 3.05271,-0.24018 7.15429,-0.61523 1.35935,-0.14058 2.60154,-0.21089 3.72657,-0.21094 3.84371,5e-5 7.26559,0.7852 10.26562,2.35547 5.22652,2.71879 7.8398,7.03129 7.83985,12.9375 -5e-5,4.78128 -1.82818,8.61331 -5.48438,11.49609 -3.44535,2.69533 -7.61722,4.04299 -12.51562,4.04297 -1.24222,2e-5 -2.76566,-0.082 -4.57032,-0.24609 -0.96096,-0.0703 -1.55861,-0.10545 -1.79297,-0.10547 -0.67971,2e-5 -1.01955,0.38674 -1.01953,1.16016 l 0,0.21093 0.2461,5.76563 c 0.0469,1.12501 0.25193,1.9629 0.61523,2.51367 0.36326,0.55079 1.1074,1.11915 2.23242,1.70508 1.52341,0.82032 2.28513,1.71094 2.28516,2.67187 -3e-5,1.47657 -1.12503,2.61329 -3.375,3.41016 -2.25002,0.79687 -5.43752,1.19531 -9.5625,1.19531 -8.67188,0 -13.00781,-1.48828 -13.00781,-4.46484 0,-0.70312 0.18749,-1.24218 0.5625,-1.61719 0.37499,-0.37499 1.2539,-0.91406 2.63672,-1.61719 0.84374,-0.4453 1.33593,-1.06639 1.47656,-1.86328 0.14062,-0.79686 0.23437,-3.36327 0.28125,-7.69922 z m 15.85547,-22.95703 0,11.95313 c -3e-5,0.91409 0.19919,1.46487 0.59765,1.65234 0.67967,0.32815 1.53513,0.49221 2.56641,0.49219 1.54685,2e-5 2.84763,-0.43357 3.90234,-1.30078 1.52341,-1.24216 2.28513,-3.3281 2.28516,-6.25782 -3e-5,-3.04683 -0.89066,-5.24996 -2.67188,-6.60937 -1.12502,-0.86715 -2.4844,-1.30074 -4.07812,-1.30078 -1.7344,4e-5 -2.60159,0.45707 -2.60156,1.37109 z"
       id="cooperblack-letter-p" />
    <path
       d="m 400.35462,-19.46289 c 3.3984,5e-5 6.94918,0.75005 10.65234,2.25 4.85152,1.9688 8.66011,5.29692 11.42578,9.9843804 2.55464,4.33597 3.83198,8.83596 3.83203,13.5 -5e-5,5.2265796 -1.5352,9.9492296 -4.60546,14.1679596 -1.4063,1.96876 -3.15239,3.69728 -5.23829,5.18555 -2.08597,1.48829 -4.21879,2.53711 -6.39843,3.14649 -0.56254,0.16406 -0.84379,0.39843 -0.84375,0.70312 -4e-5,0.84375 1.03707,1.58203 3.11133,2.21484 2.07417,0.63281 4.44722,0.94922 7.11914,0.94922 1.64057,0 3.19916,-0.32812 4.67578,-0.98437 0.30463,-0.14063 0.57416,-0.21094 0.80859,-0.21094 0.37495,0 0.74995,0.29297 1.125,0.87891 0.37495,0.58593 0.56245,1.17187 0.5625,1.75781 -5e-5,1.19531 -0.75005,2.46093 -2.25,3.79687 -1.52349,1.35937 -3.49809,2.43749 -5.92383,3.23438 -2.42582,0.79686 -4.92777,1.1953 -7.50586,1.19531 -3.02347,-1e-5 -6.29886,-0.57423 -9.82617,-1.72265 -3.52737,-1.14845 -8.67775,-3.31642 -15.45117,-6.50391 -1.19532,-0.58594 -2.54298,-1.07227 -4.04297,-1.45898 -1.50001,-0.38673 -2.74219,-0.58009 -3.72656,-0.58008 -0.32813,-1e-5 -0.72657,0.0351 -1.19531,0.10547 -0.25782,0.0234 -0.48048,0.0351 -0.66797,0.0351 -0.44532,0 -0.81446,-0.19336 -1.10742,-0.58008 -0.29298,-0.38672 -0.43946,-0.87304 -0.43946,-1.45898 0,-1.07813 0.35156,-1.98047 1.05469,-2.70703 1.125,-1.125 2.50781,-1.6875 4.14844,-1.6875 l 1.89843,0.0351 c 0.51562,10e-6 0.77343,-0.23437 0.77344,-0.70312 -10e-6,-0.35156 -0.48048,-1.08984 -1.4414,-2.21484 -2.1797,-2.50781 -3.78517,-4.85156 -4.81641,-7.03125 -1.59375,-3.39842 -2.39063,-6.9609196 -2.39063,-10.6874996 0,-4.92184997 1.30078,-9.3281 3.90235,-13.21875 2.53124,-3.7734004 6.19921,-6.7148004 11.0039,-8.8242204 3.93748,-1.71089 7.86326,-2.56636 11.77735,-2.56641 z m -3.48047,10.1953104 c -1.85159,4e-5 -3.29885,0.62699 -4.3418,1.88086 -1.04299,1.25394 -1.56447,2.98246 -1.56445,5.18555 -2e-5,2.60159003 0.416,5.43753 1.24805,8.50781 0.83201,3.07033 1.96287,5.9648596 3.39257,8.6835996 1.92185,3.65626 4.31248,5.48438 7.17188,5.48437 1.85153,1e-5 3.38083,-0.64452 4.58789,-1.93359 1.207,-1.28905 1.81051,-2.92968 1.81055,-4.92188 -4e-5,-2.62498 -0.46879,-5.6132596 -1.40625,-8.9648396 -0.93754,-3.35154 -2.13285,-6.29294 -3.58594,-8.82422 -1.87503,-3.30465 -4.31253,-5.00387 -7.3125,-5.09766 z"
       id="cooperblack-letter-q" />
    <path
       d="m 396.34681,14.84957 c -0.89065,2e-5 -1.459,0.26955 -1.70508,0.80859 -0.24611,0.53908 -0.36916,1.79299 -0.36914,3.76172 -2e-5,2.97658 0.18748,5.29689 0.5625,6.96094 0.11717,0.46876 0.29295,0.83204 0.52735,1.08984 0.23435,0.25782 0.67966,0.57423 1.33593,0.94922 1.40623,0.77345 2.10935,1.79298 2.10938,3.0586 -3e-5,1.54687 -0.97854,2.64257 -2.93555,3.28711 -1.95705,0.64453 -5.26759,0.96679 -9.93164,0.96679 -8.67188,0 -13.00781,-1.64062 -13.00781,-4.92187 0,-0.5625 0.12891,-1.01367 0.38672,-1.35352 0.25781,-0.33984 0.84375,-0.81445 1.75781,-1.42383 1.03125,-0.67968 1.72851,-1.48241 2.0918,-2.4082 0.36327,-0.92577 0.61523,-2.52538 0.75586,-4.79883 0.11718,-1.66404 0.17577,-7.62888 0.17578,-17.89453 -1e-5,-3.25778 -0.16407,-5.47262 -0.49219,-6.64453 -0.32813,-1.17184 -1.03125,-2.0273 -2.10937,-2.56641 -1.03126,-0.49214 -1.72266,-0.94331 -2.07422,-1.35351 -0.35157,-0.41012 -0.52735,-0.94332 -0.52735,-1.59961 0,-0.86714 0.33399,-1.623 1.00196,-2.26758 0.66796,-0.64448 1.5996,-1.11909 2.79492,-1.42383 1.00781,-0.25776 2.39062,-0.38667 4.14844,-0.38672 0.77342,5e-5 2.70702,0.11724 5.80078,0.35157 0.58592,0.0469 1.5117,0.0704 2.77734,0.0703 2.10936,5e-5 4.92185,-0.14058 8.4375,-0.42188 2.22654,-0.16401 3.78513,-0.24604 4.67578,-0.24609 5.01559,5e-5 9.16403,1.20708 12.44531,3.62109 2.95308,2.17973 4.42965,5.20317 4.42969,9.07032 -4e-5,2.15628 -0.51567,4.11917 -1.54687,5.88867 -1.0313,1.76956 -2.44926,3.09963 -4.25391,3.99023 -0.75004,0.37503 -1.12504,0.82034 -1.125,1.33594 -4e-5,0.67971 0.57418,1.23049 1.72266,1.65234 2.46089,0.89065 4.26558,2.23831 5.41406,4.04297 1.14839,1.80471 1.9687,4.57033 2.46094,8.29688 0.21088,1.54688 0.51557,2.54883 0.91406,3.00586 0.39839,0.45703 1.32417,0.89649 2.77734,1.31836 0.44526,0.14063 0.82026,0.43945 1.125,0.89648 0.30464,0.45704 0.45698,0.9668 0.45703,1.5293 -5e-5,0.72656 -0.2813,1.45898 -0.84375,2.19726 -0.56255,0.73828 -1.28911,1.31836 -2.17968,1.74024 -1.9688,0.91406 -4.66411,1.37109 -8.08594,1.37109 -4.57035,0 -7.83988,-1.20703 -9.80859,-3.62109 -0.89066,-1.07812 -1.64652,-2.4375 -2.26758,-4.07813 -0.62113,-1.64061 -1.35355,-4.1953 -2.19727,-7.66406 -0.53909,-2.22655 -1.22464,-3.79686 -2.05664,-4.71094 -0.83206,-0.91404 -2.02151,-1.40623 -3.56836,-1.47656 z m -2.03906,-17.92969 -0.38672,8.19141 c -2e-5,0.0703 -2e-5,0.17581 0,0.3164 -2e-5,0.84378 0.12303,1.40628 0.36914,1.6875 0.24607,0.28128 0.74412,0.42191 1.49414,0.42188 2.06248,3e-5 3.56248,-0.53318 4.5,-1.59961 0.93747,-1.06638 1.40622,-2.77145 1.40625,-5.11523 -3e-5,-4.5234 -1.60549,-6.78512 -4.8164,-6.78516 -0.91409,4e-5 -1.55862,0.21098 -1.9336,0.63281 -0.37502,0.42192 -0.58596,1.17192 -0.63281,2.25 z"
       id="cooperblack-letter-r" />
    <path
       d="m 399.54602,-13.53911 c 2.41404,5e-5 5.5781,0.59771 9.49219,1.79297 0.46871,0.14067 0.84371,0.21098 1.125,0.21094 0.23434,4e-5 0.93746,-0.21089 2.10937,-0.63282 0.37497,-0.14057 0.7734,-0.21089 1.19531,-0.21093 1.57029,4e-5 3.22848,1.24223 4.97461,3.72656 1.74605,2.48442 2.6191,4.8516 2.61914,7.10156 -4e-5,1.31254 -0.39262,2.41996 -1.17773,3.32227 -0.78519,0.90237 -1.74027,1.35355 -2.86523,1.35351 -0.93754,4e-5 -1.69925,-0.18746 -2.28516,-0.5625 -0.58597,-0.37496 -1.87504,-1.48824 -3.86719,-3.33984 -2.81253,-2.62496 -5.57815,-3.93746 -8.29687,-3.9375 -1.31253,4e-5 -2.36135,0.31645 -3.14649,0.94922 -0.78516,0.63285 -1.17775,1.46488 -1.17773,2.49609 -2e-5,2.0391 1.79294,3.57425 5.3789,4.60547 4.85154,1.42972 7.957,2.47269 9.31642,3.12891 5.97651,2.90627 8.9648,7.18361 8.96483,12.83203 -4e-5,4.9922 -2.0391,9.07032 -6.11718,12.23437 -4.17191,3.23438 -9.62113,4.85156 -16.34766,4.85157 -3.00002,-1e-5 -6.16408,-0.35743 -9.49219,-1.07227 -3.32813,-0.71484 -5.73047,-1.55273 -7.20703,-2.51367 -1.125,-0.75 -2.13867,-2.38476 -3.04101,-4.9043 -0.90235,-2.51952 -1.35352,-4.9746 -1.35352,-7.36523 0,-1.14842 0.23437,-2.01561 0.70313,-2.60157 0.58593,-0.74998 1.32421,-1.12498 2.21484,-1.125 0.89062,2e-5 1.74609,0.45705 2.56641,1.3711 0.49218,0.51564 1.65233,2.16798 3.48046,4.95703 0.86718,1.31251 2.24413,2.40235 4.13086,3.26953 1.88671,0.8672 3.83788,1.30079 5.85352,1.30078 1.73435,10e-6 3.1406,-0.32226 4.21875,-0.96679 1.0781,-0.64453 1.61716,-1.4707 1.61719,-2.47852 -3e-5,-0.93749 -0.4219,-1.74608 -1.26563,-2.42578 -0.84377,-0.67967 -2.21486,-1.31249 -4.11328,-1.89844 -3.35158,-1.05467 -5.90626,-2.02147 -7.66406,-2.90039 -1.75783,-0.87889 -3.39845,-1.98631 -4.92188,-3.32227 -3.70313,-3.28122 -5.55469,-7.00778 -5.55468,-11.17968 -1e-5,-2.06247 0.48046,-4.07223 1.4414,-6.0293 0.96093,-1.95699 2.32031,-3.65035 4.07813,-5.08008 3.93749,-3.30464 8.74217,-4.95698 14.41406,-4.95703 z"
       id="cooperblack-letter-s" />
    <path
       d="m 391.30188,-12.39653 18.52735,0 c 1.99215,-0.0703 3.80855,-0.3398 5.44922,-0.8086 0.70308,-0.18745 1.32417,-0.2812 1.86328,-0.28125 1.89839,5e-5 3.74409,1.4063 5.53711,4.21875 1.79292,2.81254 2.6894,5.70707 2.68945,8.6836 -5e-5,2.03909 -0.62114,3.52737 -1.86328,4.46484 -0.93755,0.70316 -2.06255,1.05472 -3.375,1.05469 -1.24223,3e-5 -2.32036,-0.34568 -3.23438,-1.03711 -0.9141,-0.69138 -1.81644,-1.83395 -2.70703,-3.42774 -0.77347,-1.45309 -1.38285,-2.4023 -1.82812,-2.84765 -0.44535,-0.44528 -0.98441,-0.66793 -1.61719,-0.66797 -0.86722,4e-5 -1.48832,0.36332 -1.86328,1.08984 -0.37503,0.7266 -0.56253,1.92191 -0.5625,3.58594 l 0,19.6875 c -3e-5,2.01564 0.2109,3.48048 0.63281,4.39453 0.42184,0.91407 1.21872,1.6172 2.39063,2.10938 1.26558,0.53907 2.12691,1.04883 2.58398,1.52929 0.45699,0.48048 0.68551,1.14259 0.68555,1.98633 -4e-5,1.6875 -1.14262,2.94141 -3.42774,3.76172 -2.28519,0.82031 -5.79495,1.23047 -10.52929,1.23047 -5.81252,0 -10.12502,-0.48047 -12.9375,-1.44141 -2.3672,-0.79687 -3.55079,-2.08593 -3.55079,-3.86719 0,-0.96093 0.42187,-1.71093 1.26563,-2.25 0.21093,-0.11718 1.04296,-0.39843 2.49609,-0.84375 0.89061,-0.2578 1.50585,-0.74999 1.84571,-1.47656 0.33983,-0.72655 0.61522,-2.12108 0.82617,-4.18359 0.18748,-1.82811 0.36326,-4.78709 0.52734,-8.87695 0.16405,-4.08982 0.24608,-7.63474 0.2461,-10.63477 -2e-5,-2.10934 -0.16408,-3.60934 -0.49219,-4.5 -0.32814,-0.89059 -0.8672,-1.3359 -1.61719,-1.33594 -0.91407,4e-5 -1.8047,0.65629 -2.67187,1.96875 -1.57033,2.39066 -2.85939,3.97269 -3.86719,4.7461 -1.19532,0.91409 -2.35548,1.37112 -3.48047,1.37109 -1.26563,3e-5 -2.3086,-0.47458 -3.12891,-1.42383 -0.82031,-0.94918 -1.23047,-2.16207 -1.23047,-3.63867 0,-1.45309 0.32813,-3.0527 0.98438,-4.79883 0.65625,-1.74605 1.53515,-3.35738 2.63672,-4.83398 1.78124,-2.39058 3.53905,-3.58589 5.27344,-3.58594 0.46874,5e-5 1.0078,0.0704 1.61718,0.21094 1.26562,0.25786 2.30273,0.43364 3.11133,0.52734 0.80858,0.0938 1.74022,0.14067 2.79492,0.14063 z"
       id="cooperblack-letter-t" />
    <path
       d="m 423.59289,4.88276 0,8.57813 c -5e-5,5.1797 -0.38677,8.84767 -1.16015,11.0039 -1.66412,4.54688 -5.32036,7.83985 -10.96875,9.87891 -3.42192,1.26562 -7.2891,1.89843 -11.60157,1.89844 -7.52346,-10e-6 -13.54689,-1.79297 -18.07031,-5.37891 -2.20313,-1.75781 -3.72657,-3.79687 -4.57031,-6.11719 -0.84376,-2.3203 -1.26563,-5.67186 -1.26563,-10.05469 0,-1.71091 0.0586,-4.52341 0.17578,-8.4375 0.0703,-2.76559 0.10547,-4.59371 0.10547,-5.48437 0,-1.94528 -0.14649,-3.29293 -0.43945,-4.04297 -0.29297,-0.74996 -0.93164,-1.45308 -1.91602,-2.10937 -1.54687,-1.00778 -2.32031,-2.13277 -2.32031,-3.375 0,-0.91402 0.39258,-1.72261 1.17774,-2.42579 0.78515,-0.70307 1.82226,-1.18354 3.11132,-1.4414 2.57812,-0.51558 5.62499,-0.77339 9.14063,-0.77344 3.86717,5e-5 7.0781,0.29302 9.63281,0.87891 2.50779,0.56254 3.76169,1.83989 3.76172,3.83203 -3e-5,0.98442 -0.36331,1.76957 -1.08984,2.35547 -0.16409,0.14066 -0.86722,0.50394 -2.10938,1.08984 -0.75002,0.32817 -1.25979,0.92582 -1.52929,1.79297 -0.26956,0.86722 -0.40432,2.29691 -0.4043,4.28906 -2e-5,2.0391 -0.0938,6.44534 -0.28125,13.21875 -0.11721,4.03127 0.97263,7.10158 3.26953,9.21094 1.87497,1.73438 4.28903,2.60157 7.24219,2.60156 1.87496,10e-6 3.57418,-0.34569 5.09765,-1.03711 1.5234,-0.69139 2.68356,-1.63475 3.48047,-2.83008 0.63277,-0.91404 1.06637,-1.93357 1.30078,-3.05859 0.23434,-1.12498 0.35152,-2.66014 0.35157,-4.60547 l 0,-7.73437 c -0.11723,-5.92966 -0.28716,-9.40426 -0.50977,-10.42383 -0.2227,-1.01949 -0.97856,-1.82223 -2.26758,-2.4082 -1.21879,-0.53902 -2.05082,-1.03121 -2.49609,-1.47657 -0.44535,-0.44527 -0.66801,-0.99605 -0.66797,-1.65234 -4e-5,-1.4062 0.83785,-2.43159 2.51367,-3.07617 1.67574,-0.64449 4.36519,-0.96675 8.06836,-0.9668 3.63276,5e-5 6.26362,0.31646 7.89258,0.94922 1.62885,0.63286 2.4433,1.64067 2.44336,3.02344 -6e-5,0.67973 -0.14068,1.18363 -0.42188,1.51172 -0.2813,0.32816 -1.01958,0.83207 -2.21484,1.51171 -1.24224,0.70317 -1.95123,1.45903 -2.12695,2.26758 -0.17584,0.80864 -0.28717,3.81449 -0.33399,9.01758 z"
       id="cooperblack-letter-u" />
    <path
       d="m 420.79798,-1.74419 -16.13672,32.66016 c -0.98441,2.01563 -1.92191,3.4043 -2.8125,4.16602 -0.89066,0.76171 -2.01566,1.14257 -3.375,1.14257 -1.12503,0 -2.13284,-0.24609 -3.02344,-0.73828 -0.67971,-0.375 -1.21291,-0.81445 -1.59961,-1.31836 -0.38674,-0.5039 -0.87307,-1.4121 -1.45898,-2.72461 L 378.01282,-0.23247 c -0.79688,-1.78121 -1.51758,-2.9941 -2.16211,-3.63867 -0.64453,-0.64449 -1.56446,-1.07223 -2.75977,-1.2832 -1.40625,-0.25777 -2.10937,-1.12496 -2.10937,-2.60157 0,-1.80464 1.23047,-3.19331 3.69141,-4.16601 2.46093,-0.97261 5.98827,-1.45894 10.58203,-1.45899 4.78123,5e-5 8.29685,0.36333 10.54687,1.08985 2.24998,0.72661 3.37497,1.85161 3.375,3.375 -3e-5,0.98442 -0.6094,1.89848 -1.82812,2.74219 -0.93753,0.63285 -1.40628,1.2305 -1.40625,1.79296 -3e-5,0.51567 0.21091,1.25395 0.63281,2.21485 l 4.39453,9.91406 c 0.63278,1.45315 1.34763,2.17971 2.14453,2.17969 0.77341,2e-5 1.46481,-0.38669 2.07422,-1.16016 0.60934,-0.77341 1.42965,-2.29684 2.46094,-4.57031 1.85152,-4.07809 2.92965,-6.48629 3.23437,-7.22461 0.30465,-0.73824 0.45699,-1.3066 0.45703,-1.70508 -4e-5,-0.79683 -0.55082,-1.47652 -1.65234,-2.03906 -1.21879,-0.63277 -1.82816,-1.44136 -1.82812,-2.42578 -4e-5,-2.78902 3.73824,-4.18355 11.21484,-4.1836 3.72651,5e-5 6.35737,0.29888 7.89258,0.89649 1.5351,0.5977 2.30267,1.62309 2.30273,3.07617 -6e-5,1.73442 -1.00787,2.73051 -3.02344,2.98828 -1.42974,0.16411 -2.35552,0.39848 -2.77734,0.70313 -0.75005,0.5391 -1.64067,1.86332 -2.67187,3.97265 z"
       id="cooperblack-letter-v" />
    <path
       d="m 395.13391,-0.14458 -1.01952,-2.46093 c -0.63284,-1.42965 -1.418,-2.37887 -2.35548,-2.84766 -1.68752,-0.89058 -2.53127,-2.01558 -2.53125,-3.375 -2e-5,-2.99995 4.49998,-4.49995 13.5,-4.5 4.49996,5e-5 7.92183,0.36333 10.26563,1.08984 0.79683,0.25786 1.43549,0.66802 1.91601,1.23047 0.48042,0.56255 0.72065,1.18364 0.7207,1.86328 -5e-5,0.58599 -0.11138,1.0313 -0.33398,1.33594 -0.22271,0.30473 -0.83794,0.90239 -1.8457,1.79297 -0.58599,0.49223 -0.87896,1.00785 -0.87891,1.54688 -5e-5,0.82035 0.44526,2.17972 1.33594,4.07812 l 2.0039,4.28906 c 0.91401,1.94535 1.5644,3.18167 1.95118,3.70899 0.38666,0.52737 0.82611,0.79104 1.31836,0.79101 0.539,3e-5 1.00189,-0.30466 1.38867,-0.91406 0.38666,-0.60935 0.8847,-1.80466 1.49414,-3.58594 l 1.6875,-4.92187 c 0.46869,-1.40621 0.70306,-2.4609 0.70312,-3.16406 -6e-5,-0.93746 -0.49225,-1.55856 -1.47656,-1.86329 -1.96881,-0.63277 -2.95318,-1.75776 -2.95312,-3.375 -6e-5,-1.4062 0.76166,-2.41401 2.28515,-3.02343 1.52338,-0.60933 4.03119,-0.91402 7.52344,-0.91407 2.27337,5e-5 4.0429,0.25787 5.30859,0.77344 1.75774,0.70317 2.63665,1.82817 2.63672,3.375 -7e-5,0.67973 -0.15828,1.26567 -0.47461,1.75781 -0.31648,0.49223 -0.95515,1.14848 -1.91601,1.96875 -0.63289,0.53911 -1.11921,1.11333 -1.45899,1.72266 -0.3399,0.60941 -0.8614,1.86332 -1.56445,3.76172 l -6.15234,16.34766 c -3.07038,7.61719 -4.92194,12.15235 -5.55469,13.60546 -0.63287,1.45313 -1.28912,2.75391 -1.96875,3.90235 -0.51567,0.84375 -1.0899,1.43555 -1.72266,1.77539 -0.63286,0.33984 -1.47661,0.50976 -2.53125,0.50976 -1.4063,0 -2.53716,-0.30468 -3.39258,-0.91406 -0.85551,-0.60937 -1.57621,-1.61718 -2.16211,-3.02344 l -6.96093,-16.52343 c -0.37504,-0.91404 -0.65629,-1.48826 -0.84375,-1.72266 -0.18754,-0.23435 -0.44535,-0.35154 -0.77344,-0.35156 -0.49222,2e-5 -0.9141,0.29299 -1.26563,0.8789 -0.35159,0.58596 -1.01956,2.09768 -2.0039,4.53516 l -4.78125,11.88281 c -0.89066,2.15626 -1.74025,3.58008 -2.54883,4.27149 -0.80862,0.6914 -2.03323,1.03711 -3.67383,1.03711 -1.47658,0 -2.6426,-0.35157 -3.49804,-1.05469 -0.85549,-0.70312 -1.63479,-1.94531 -2.3379,-3.72656 L 367.255,-1.65629 c -0.53906,-1.35934 -0.9082,-2.16207 -1.10742,-2.40821 -0.19922,-0.24605 -0.82617,-0.65035 -1.88086,-1.21289 -1.19531,-0.60933 -1.79297,-1.64058 -1.79297,-3.09375 0,-3.30464 4.10156,-4.95698 12.30469,-4.95703 4.1953,5e-5 7.23045,0.29302 9.10547,0.87891 1.80467,0.58598 2.70702,1.74614 2.70703,3.48047 -2e-5,0.5391 -0.0469,0.93168 -0.14062,1.17773 -0.0938,0.24614 -0.43362,0.79106 -1.01953,1.63477 -0.28128,0.44535 -0.4219,0.99613 -0.42188,1.65234 -2e-5,1.17191 0.78513,3.60941 2.35548,7.3125 l 1.44141,3.375 c 0.60934,1.40628 1.01364,2.25589 1.21289,2.54883 0.19919,0.29299 0.4863,0.43948 0.86132,0.43945 0.91404,3e-5 1.85154,-1.30075 2.8125,-3.90234 l 1.44141,-4.00782 c 0.11716,-0.28121 0.17575,-0.50387 0.17578,-0.66796 -3e-5,-0.18747 -0.0586,-0.43356 -0.17578,-0.73829 z"
       id="cooperblack-letter-w" />
    <path
       d="m 408.03626,7.29097 13.42969,16.83984 c 0.79682,0.98439 1.41791,1.65235 1.86328,2.00391 0.44526,0.35157 1.07807,0.65626 1.89843,0.91406 1.28901,0.42188 2.19721,0.90235 2.72461,1.44141 0.52729,0.53906 0.79096,1.25391 0.79102,2.14453 -6e-5,0.84375 -0.29303,1.63477 -0.87891,2.37304 -0.58599,0.73829 -1.33599,1.28321 -2.25,1.63477 -1.4063,0.53906 -3.16411,0.91992 -5.27343,1.14258 -2.10943,0.22265 -5.03911,0.33398 -8.78907,0.33398 -4.00784,0 -7.00784,-0.22265 -9,-0.66797 -1.1719,-0.28125 -2.09768,-0.73828 -2.77734,-1.37109 -0.67972,-0.63281 -1.01956,-1.34765 -1.01953,-2.14453 -3e-5,-1.00781 0.46872,-1.82812 1.40625,-2.46094 0.93747,-0.60937 1.40622,-1.12499 1.40625,-1.54687 -3e-5,-1.17187 -1.3594,-3.55077 -4.07813,-7.13672 -0.35158,-0.4453 -0.65627,-0.66796 -0.91406,-0.66797 -0.2344,10e-6 -0.50393,0.18751 -0.80859,0.5625 -1.12503,1.35939 -2.11526,2.71876 -2.97071,4.07812 -0.85548,1.35939 -1.28322,2.23829 -1.2832,2.63672 -2e-5,0.37501 0.48045,0.93751 1.44141,1.6875 0.93748,0.70313 1.40622,1.59376 1.40625,2.67188 -3e-5,1.61719 -0.91409,2.70703 -2.74219,3.26953 -2.39064,0.75 -5.2383,1.125 -8.54297,1.125 -3.75001,0 -6.63282,-0.31641 -8.64844,-0.94922 -0.82031,-0.25781 -1.51172,-0.73828 -2.07422,-1.44141 -0.5625,-0.70312 -0.84375,-1.4414 -0.84375,-2.21484 0,-1.03125 0.34571,-1.83984 1.03711,-2.42578 0.69141,-0.58593 1.68164,-0.90234 2.97071,-0.94922 1.54687,-0.0469 2.85937,-0.50976 3.9375,-1.38867 1.07811,-0.8789 2.95311,-3.00585 5.625,-6.38086 l 5.44922,-6.82031 c 0.30466,-0.37498 0.45701,-0.66795 0.45703,-0.87891 -2e-5,-0.1406 -0.15237,-0.39841 -0.45703,-0.77344 l -9,-11.49609 c -1.40626,-1.82809 -2.33204,-2.94137 -2.77735,-3.33985 -0.44532,-0.39839 -1.16016,-0.74996 -2.14453,-1.05468 -1.40625,-0.44528 -2.32031,-0.85543 -2.74219,-1.23047 -0.79687,-0.72652 -1.19531,-1.59371 -1.19531,-2.60156 0,-2.10933 1.66406,-3.53902 4.99219,-4.28907 3.51561,-0.79682 7.48827,-1.19526 11.91797,-1.19531 4.66404,5e-5 7.8281,0.30474 9.49218,0.91406 0.72654,0.25786 1.31248,0.70318 1.75782,1.33594 0.44528,0.63286 0.66794,1.32426 0.66797,2.07422 -3e-5,1.17192 -0.43363,2.06254 -1.30079,2.67187 -0.53909,0.37505 -0.86135,0.62114 -0.96679,0.73829 -0.1055,0.11722 -0.15823,0.30472 -0.15821,0.5625 -2e-5,0.5391 0.43357,1.37113 1.30079,2.49609 0.86715,1.12504 1.51168,1.68754 1.93359,1.6875 0.37497,4e-5 1.05466,-0.59762 2.03906,-1.79297 0.98434,-1.19527 1.47653,-2.0273 1.47656,-2.49609 -3e-5,-0.28121 -0.0645,-0.49215 -0.19335,-0.63282 -0.12894,-0.14058 -0.58012,-0.50386 -1.35352,-1.08984 -0.70316,-0.51558 -1.05472,-1.28902 -1.05469,-2.32031 -3e-5,-1.47652 0.91403,-2.54292 2.74219,-3.19922 1.82809,-0.6562 4.80465,-0.98433 8.92969,-0.98438 3.02339,5e-5 5.35542,0.24615 6.99609,0.73829 2.06245,0.60942 3.0937,1.82817 3.09375,3.65625 -5e-5,1.21879 -0.5274,2.13285 -1.58203,2.74218 -0.42193,0.23442 -1.52349,0.4102 -3.30469,0.52735 -1.17192,0.0938 -2.37309,0.60941 -3.60351,1.54687 -1.23052,0.93754 -2.66606,2.44926 -4.30664,4.53516 l -4.14844,5.20312 c -0.30472,0.39847 -0.45707,0.69144 -0.45703,0.87891 -4e-5,0.14065 0.15231,0.39847 0.45703,0.77344 z"
       id="cooperblack-letter-x" />
    <path
       d="m 387.48742,-13.29302 c 4.59373,5e-5 8.09764,0.24615 10.51172,0.73829 1.10154,0.21098 1.9863,0.627 2.6543,1.24804 0.66794,0.62114 1.00192,1.33013 1.00195,2.12696 -3e-5,0.60941 -0.25784,1.23051 -0.77344,1.86328 -0.75002,0.96098 -1.12502,1.65238 -1.125,2.07422 -2e-5,0.84379 0.66795,2.19144 2.00391,4.04296 0.86716,1.19535 1.68747,1.79301 2.46094,1.79297 0.49215,4e-5 0.97262,-0.1816 1.4414,-0.54492 0.46872,-0.36324 1.0781,-1.01363 1.82813,-1.95117 0.91403,-1.1484 1.37106,-2.06246 1.37109,-2.74219 -3e-5,-0.42183 -0.0528,-0.73824 -0.1582,-0.94922 -0.1055,-0.21089 -0.48636,-0.7148 -1.14258,-1.51172 -0.46878,-0.53901 -0.70316,-1.26558 -0.70312,-2.17968 -4e-5,-2.64839 3.5859,-3.97261 10.75781,-3.97266 4.05464,5e-5 6.69135,0.18755 7.91016,0.5625 0.77338,0.23442 1.41205,0.67974 1.91601,1.33594 0.50385,0.65629 0.75581,1.35942 0.75586,2.10937 -5e-5,0.96098 -0.29302,1.68755 -0.87891,2.17969 -0.58599,0.49223 -1.60552,0.86723 -3.05859,1.125 -1.33599,0.25785 -2.49614,0.76762 -3.48047,1.5293 -0.98442,0.76176 -2.78911,2.54886 -5.41406,5.36133 -3.18754,3.44534 -5.17387,5.98245 -5.95898,7.61132 -0.7852,1.62894 -1.17777,4.06057 -1.17774,7.29493 -3e-5,2.71876 0.10543,5.23829 0.31641,7.55859 0.11715,1.4297 0.3398,2.41993 0.66797,2.9707 0.32808,0.55079 1.00777,1.09571 2.03906,1.63477 1.7109,0.89063 2.56636,2.00391 2.5664,3.33984 -4e-5,3.1875 -4.71097,4.78125 -14.13281,4.78125 -3.86721,0 -7.52346,-0.375 -10.96875,-1.125 -2.90626,-0.63281 -4.35938,-1.88671 -4.35937,-3.76172 -10e-6,-1.45312 0.89061,-2.49608 2.67187,-3.1289 1.33592,-0.46875 2.16795,-1.0664 2.4961,-1.79297 0.74998,-1.61718 1.12498,-5.43749 1.125,-11.46094 -2e-5,-1.87498 -0.18752,-3.33396 -0.5625,-4.37695 -0.37502,-1.04295 -1.19533,-2.39646 -2.46094,-4.06055 -2.64845,-3.44528 -5.37892,-6.55074 -8.19141,-9.31641 -1.21875,-1.19527 -2.39063,-2.00386 -3.51562,-2.42578 -1.59375,-0.58589 -2.55469,-1.01949 -2.88282,-1.30078 -0.65625,-0.56246 -0.98437,-1.31245 -0.98437,-2.25 0,-1.57026 1.18359,-2.70112 3.55078,-3.39258 2.36718,-0.69135 6.32812,-1.03706 11.88281,-1.03711 z"
       id="cooperblack-letter-y" />
    <path
       d="m 419.54993,-6.92975 -15.53906,26.78907 c -1.75784,3.04688 -2.63675,4.87501 -2.63672,5.48437 -3e-5,1.07813 1.59372,1.6172 4.78125,1.61719 1.24215,10e-6 2.49606,-0.13476 3.76172,-0.4043 1.26559,-0.26952 2.19137,-0.59179 2.77734,-0.9668 1.19527,-0.79686 2.37887,-2.48436 3.55078,-5.0625 0.46871,-1.00779 0.92574,-1.6992 1.37109,-2.07421 0.44527,-0.37499 1.04293,-0.56249 1.79297,-0.5625 1.64058,10e-6 2.87105,0.4629 3.69141,1.38867 0.82026,0.92579 1.23042,2.30275 1.23047,4.13086 -5e-5,3.75001 -0.98442,7.01953 -2.95313,9.80859 -1.38285,1.94531 -2.69535,2.91797 -3.9375,2.91797 -0.3516,0 -0.82035,-0.0469 -1.40625,-0.14063 -1.71097,-0.32812 -3.32816,-0.49218 -4.85156,-0.49218 l -30.55078,0 c -1.38282,0 -2.20899,-0.0234 -2.47852,-0.0703 -0.26953,-0.0469 -0.54492,-0.21093 -0.82617,-0.49218 -0.46875,-0.49219 -0.70312,-1.14844 -0.70312,-1.96875 0,-0.75 0.32812,-1.6875 0.98437,-2.8125 l 18.10547,-30.69141 c 0.53904,-0.91402 0.80857,-1.54684 0.80859,-1.89844 -2e-5,-1.33589 -1.33595,-2.00386 -4.00781,-2.0039 -2.29689,4e-5 -3.95509,0.37504 -4.97461,1.125 -1.01954,0.75004 -2.17383,2.44925 -3.46289,5.09765 -0.98438,2.0391 -2.1211,3.05863 -3.41015,3.0586 -1.2422,3e-5 -2.34376,-0.57419 -3.30469,-1.72266 -0.96094,-1.1484 -1.44141,-2.47262 -1.44141,-3.97266 0,-2.39058 0.99609,-5.26167 2.98828,-8.61328 1.40625,-2.3437 2.54297,-3.51557 3.41016,-3.51562 0.21093,5e-5 0.51562,0.0704 0.91406,0.21094 1.40624,0.49223 4.51171,0.73832 9.31641,0.73828 2.15623,4e-5 7.08982,-0.23433 14.80078,-0.70313 6.56246,-0.37495 9.92574,-0.56245 10.08984,-0.5625 1.00777,5e-5 1.82223,0.29302 2.44336,0.87891 0.62105,0.58598 0.9316,1.35942 0.93164,2.32031 -4e-5,0.63286 -0.42192,1.68754 -1.26562,3.16406 z"
       id="cooperblack-letter-z" />
  </g>
</svg>
