<?xml version="1.0" encoding="UTF-8" standalone="no"?>
<!-- Created with Inkscape (http://www.inkscape.org/) -->

<svg
   xmlns:dc="http://purl.org/dc/elements/1.1/"
   xmlns:cc="http://creativecommons.org/ns#"
   xmlns:rdf="http://www.w3.org/1999/02/22-rdf-syntax-ns#"
   xmlns:svg="http://www.w3.org/2000/svg"
   xmlns="http://www.w3.org/2000/svg"
   xmlns:sodipodi="http://sodipodi.sourceforge.net/DTD/sodipodi-0.dtd"
   xmlns:inkscape="http://www.inkscape.org/namespaces/inkscape"
   width="727.15625"
   height="691.75"
   id="svg2"
   version="1.1"
   inkscape:version="0.48.1 "
   sodipodi:docname="jacket.svg">
  <defs
     id="defs4" />
  <sodipodi:namedview
     id="base"
     pagecolor="#ffffff"
     bordercolor="#666666"
     borderopacity="1.0"
     inkscape:pageopacity="0.0"
     inkscape:pageshadow="2"
     inkscape:zoom="1.0074671"
     inkscape:cx="320.64306"
     inkscape:cy="462.78771"
     inkscape:document-units="px"
     inkscape:current-layer="layer1"
     showgrid="false"
     fit-margin-top="0"
     fit-margin-left="0"
     fit-margin-right="0"
     fit-margin-bottom="0"
     inkscape:window-width="1280"
     inkscape:window-height="738"
     inkscape:window-x="-8"
     inkscape:window-y="-8"
     inkscape:window-maximized="1" />
  <metadata
     id="metadata7">
    <rdf:RDF>
      <cc:Work
         rdf:about="">
        <dc:format>image/svg+xml</dc:format>
        <dc:type
           rdf:resource="http://purl.org/dc/dcmitype/StillImage" />
        <dc:title></dc:title>
      </cc:Work>
    </rdf:RDF>
  </metadata>
  <g
     inkscape:label="Layer 1"
     inkscape:groupmode="layer"
     id="layer1"
     transform="translate(-7.8125,-37.3125)">
    <path
       style="fill:#ffffff;stroke:#000000;stroke-width:7;stroke-linecap:butt;stroke-linejoin:miter;stroke-miterlimit:4;stroke-opacity:1;stroke-dasharray:none"
       d="m 200.76883,608.5574 -3.01908,70.94838 80.00563,27.17172 108.68688,-1.50954 84.53425,-28.68126 54.34344,-37.7385 -3.01908,-58.87206 -131.32999,57.36252 z"
       id="belt"
       inkscape:connector-curvature="0"
       inkscape:label="#path3833" />
    <path
       style="fill:#000000;stroke:none"
       d="m 229.45009,114.93779 42.26713,-42.267125 96.61056,-4.52862 66.41977,21.133561 27.17172,39.248044 -46.79575,221.90239 -137.36814,6.03816 z"
       id="inkyblackvoid"
       inkscape:connector-curvature="0"
       sodipodi:nodetypes="cccccccc"
       inkscape:label="#path3811" />
    <path
       style="fill:#ffffff;stroke:#000000;stroke-width:7;stroke-linecap:butt;stroke-linejoin:miter;stroke-miterlimit:4;stroke-opacity:1;stroke-dasharray:none"
       d="m 159.29775,419.46493 6.41654,-21.38846 -2.96732,0.74183"
       id="path3773"
       inkscape:connector-curvature="0" />
    <path
       style="fill:#ffffff;stroke:#000000;stroke-width:7;stroke-linecap:butt;stroke-linejoin:miter;stroke-miterlimit:4;stroke-opacity:1;stroke-dasharray:none"
       d="m 157.52491,430.08631 -0.38205,-3.43841 2.15489,-7.18297"
       id="path3771"
       inkscape:connector-curvature="0" />
    <path
       style="fill:#ffffff;stroke:#000000;stroke-width:7;stroke-linecap:butt;stroke-linejoin:miter;stroke-miterlimit:4;stroke-opacity:1;stroke-dasharray:none"
       d="m 310.19858,274.1011 60.35695,100.59718 -10.02729,277.92073 -54.65202,-0.5807 -117.30479,-36.81898 -25.71429,-137.14286 -5.33223,-47.99016 -72.128255,-206.61288 0,0 131.746205,-105.39696 88.71532,100.14777 z"
       id="lbase"
       inkscape:connector-curvature="0"
       sodipodi:nodetypes="cccccccccccc"
       inkscape:label="#path3791" />
    <path
       style="fill:#ffffff;stroke:#000000;stroke-width:7;stroke-linecap:butt;stroke-linejoin:miter;stroke-miterlimit:4;stroke-opacity:1;stroke-dasharray:none"
       d="m 222.83347,111.04689 42.88082,-52.970422 65.71428,-17.142857 82.85714,22.857143 35.25734,37.466736 -96.13587,-16.001113 -55.28492,3.171296 z"
       id="backcollar"
       inkscape:connector-curvature="0"
       sodipodi:nodetypes="cccccccc"
       inkscape:label="#path3780" />
    <path
       style="fill:#ffffff;stroke:#000000;stroke-width:7;stroke-linecap:butt;stroke-linejoin:miter;stroke-miterlimit:4;stroke-opacity:1;stroke-dasharray:none"
       d="m 214.35469,120.97595 15.0954,43.77666 24.15264,30.1908 48.30529,21.13356 4.52862,-25.66218 -28.68126,-39.24804 -19.62402,-31.70034 4.52862,-39.248044 10.56678,-25.662182 -34.71943,30.190802 z"
       id="lcollar"
       inkscape:connector-curvature="0"
       sodipodi:nodetypes="ccccccccccc"
       inkscape:label="#path3782" />
    <path
       style="fill:#ffffff;stroke:#000000;stroke-width:7;stroke-linecap:butt;stroke-linejoin:miter;stroke-miterlimit:4;stroke-opacity:1;stroke-dasharray:none"
       d="m 431.3125,95.5625 -56.9375,84.28125 -4.53125,69.4375 -42.28125,98.125 22.65625,73.96875 -4.53125,54.34375 4.53125,78.5 c 0,0 -6.49879,64.26837 -7.5625,100.21875 l 54.5,-4.9375 97.125,-37.125 40,-31.4375 L 540,495.21875 548.5625,418.0625 557.6875,393 586.96875,162.03125 520,118.0625 446.0625,99 l -14.75,-3.4375 z"
       id="rbase"
       inkscape:connector-curvature="0"
       inkscape:label="#path3801" />
    <path
       style="fill:#ffffff;stroke:#000000;stroke-width:7;stroke-linecap:butt;stroke-linejoin:miter;stroke-miterlimit:4;stroke-opacity:1;stroke-dasharray:none"
       d="m 277.75538,468.17017 -76.98655,76.98654 10.56678,16.60494 80.00563,-80.00562 z"
       id="lpocket"
       inkscape:connector-curvature="0"
       inkscape:label="#path3821" />
    <path
       style="fill:#ffffff;stroke:#000000;stroke-width:7;stroke-linecap:butt;stroke-linejoin:miter;stroke-miterlimit:4;stroke-opacity:1;stroke-dasharray:none"
       d="m 387.9518,478.73695 63.40069,48.30528 22.6431,27.17172 16.60494,-12.07632 -49.81482,-43.77666 -34.71943,-31.70034 z"
       id="rpocket"
       inkscape:connector-curvature="0"
       inkscape:label="#path3823" />
    <path
       style="fill:#ffffff;stroke:#000000;stroke-width:7;stroke-linecap:butt;stroke-linejoin:miter;stroke-miterlimit:4;stroke-opacity:1;stroke-dasharray:none"
       d="m 167.55895,616.1051 22.6431,60.3816 -36.22896,36.22896 -45.2862,12.07632 -18.114485,-64.91022 z"
       id="lcuff"
       inkscape:connector-curvature="0"
       inkscape:label="#path3825" />
    <path
       style="fill:#000000;stroke:none"
       d="m 114.72505,717.24428 30.1908,-28.68126 31.70034,-6.03816 -25.66218,24.15264 z"
       id="lvoid"
       inkscape:connector-curvature="0"
       sodipodi:nodetypes="ccccc"
       inkscape:label="#path3829" />
    <path
       style="fill:#ffffff;stroke:#000000;stroke-width:7;stroke-linecap:butt;stroke-linejoin:miter;stroke-miterlimit:4;stroke-opacity:1;stroke-dasharray:none"
       d="m 366.81824,193.43387 1.50954,-19.62402 30.1908,-46.79574 9.46417,-31.402339 -21.54049,-38.036507 34.71943,12.076321 24.15264,24.152642 -12.07633,46.795743 -48.30528,64.91022 z"
       id="rcollar"
       inkscape:connector-curvature="0"
       sodipodi:nodetypes="cccccccccc"
       inkscape:label="#path3784" />
    <g
       id="buttons"
       inkscape:label="#g3841"
       style="fill:#ffffff;stroke:#000000">
      <path
         d="m 368.32777,355.70944 c 0,4.58533 -3.71714,8.30247 -8.30247,8.30247 -4.58533,0 -8.30247,-3.71714 -8.30247,-8.30247 0,-4.58533 3.71714,-8.30247 8.30247,-8.30247 4.58533,0 8.30247,3.71714 8.30247,8.30247 z"
         sodipodi:ry="8.3024702"
         sodipodi:rx="8.3024702"
         sodipodi:cy="355.70944"
         sodipodi:cx="360.0253"
         id="path3813"
         style="fill:#ffffff;fill-opacity:1;stroke:#000000;stroke-width:4;stroke-miterlimit:4;stroke-dasharray:none"
         sodipodi:type="arc" />
      <path
         transform="translate(9.0572405,73.967464)"
         sodipodi:type="arc"
         style="fill:#ffffff;fill-opacity:1;stroke:#000000;stroke-width:4;stroke-miterlimit:4;stroke-dasharray:none"
         id="path3815"
         sodipodi:cx="360.0253"
         sodipodi:cy="355.70944"
         sodipodi:rx="8.3024702"
         sodipodi:ry="8.3024702"
         d="m 368.32777,355.70944 c 0,4.58533 -3.71714,8.30247 -8.30247,8.30247 -4.58533,0 -8.30247,-3.71714 -8.30247,-8.30247 0,-4.58533 3.71714,-8.30247 8.30247,-8.30247 4.58533,0 8.30247,3.71714 8.30247,8.30247 z" />
      <path
         d="m 368.32777,355.70944 c 0,4.58533 -3.71714,8.30247 -8.30247,8.30247 -4.58533,0 -8.30247,-3.71714 -8.30247,-8.30247 0,-4.58533 3.71714,-8.30247 8.30247,-8.30247 4.58533,0 8.30247,3.71714 8.30247,8.30247 z"
         sodipodi:ry="8.3024702"
         sodipodi:rx="8.3024702"
         sodipodi:cy="355.70944"
         sodipodi:cx="360.0253"
         id="path3817"
         style="fill:#ffffff;fill-opacity:1;stroke:#000000;stroke-width:4;stroke-miterlimit:4;stroke-dasharray:none"
         sodipodi:type="arc"
         transform="translate(10.566781,169.06849)" />
      <path
         transform="translate(4.5286206,276.24584)"
         sodipodi:type="arc"
         style="fill:#ffffff;fill-opacity:1;stroke:#000000;stroke-width:4;stroke-miterlimit:4;stroke-dasharray:none"
         id="path3819"
         sodipodi:cx="360.0253"
         sodipodi:cy="355.70944"
         sodipodi:rx="8.3024702"
         sodipodi:ry="8.3024702"
         d="m 368.32777,355.70944 c 0,4.58533 -3.71714,8.30247 -8.30247,8.30247 -4.58533,0 -8.30247,-3.71714 -8.30247,-8.30247 0,-4.58533 3.71714,-8.30247 8.30247,-8.30247 4.58533,0 8.30247,3.71714 8.30247,8.30247 z" />
      <path
         transform="translate(31.700342,-126.80137)"
         sodipodi:type="arc"
         style="fill:#ffffff;fill-opacity:1;stroke:#000000;stroke-width:4;stroke-miterlimit:4;stroke-dasharray:none"
         id="path3831"
         sodipodi:cx="360.0253"
         sodipodi:cy="355.70944"
         sodipodi:rx="8.3024702"
         sodipodi:ry="8.3024702"
         d="m 368.32777,355.70944 c 0,4.58533 -3.71714,8.30247 -8.30247,8.30247 -4.58533,0 -8.30247,-3.71714 -8.30247,-8.30247 0,-4.58533 3.71714,-8.30247 8.30247,-8.30247 4.58533,0 8.30247,3.71714 8.30247,8.30247 z" />
    </g>
    <path
       style="fill:#ffffff;stroke:#000000;stroke-width:7;stroke-linecap:butt;stroke-linejoin:miter;stroke-miterlimit:4;stroke-opacity:1;stroke-dasharray:none"
       d="m 125.12089,258.5756 39.99657,79.07776 -1.16022,57.71296 -12.88961,54.82473 20.36094,170.74256 0,0 L 88.571429,678.07647 60,660.93361 11.428571,486.6479 74.285714,232.36218 85.396655,223.47343 z"
       id="lsleeve"
       inkscape:connector-curvature="0"
       sodipodi:nodetypes="cccccccccccc"
       inkscape:label="#path3775" />
    <path
       style="fill:none;stroke:#000000;stroke-width:7;stroke-linecap:butt;stroke-linejoin:miter;stroke-miterlimit:4;stroke-opacity:1;stroke-dasharray:none"
       d="m 339.64652,652.33406 1.50954,54.34344"
       id="path3835"
       inkscape:connector-curvature="0" />
    <path
       style="fill:#ffffff;stroke:#000000;stroke-width:7;stroke-linecap:butt;stroke-linejoin:miter;stroke-miterlimit:4;stroke-opacity:1;stroke-dasharray:none"
       d="m 560.03937,578.36659 -22.6431,51.32437 12.07632,24.15264 63.40069,19.62402 22.6431,-16.60494 13.58586,-52.8339 z"
       id="rcuff"
       inkscape:connector-curvature="0"
       inkscape:label="#path3837" />
    <path
       style="fill:#000000;stroke:none"
       d="m 550.98213,634.21958 4.52862,13.58586 51.32437,15.0954 12.07632,-6.03816 -4.52862,-13.58586 -55.85299,-16.60494 z"
       id="rvoid"
       inkscape:connector-curvature="0"
       inkscape:label="#path3839" />
    <path
       style="fill:#ffffff;stroke:#000000;stroke-width:7;stroke-linecap:butt;stroke-linejoin:miter;stroke-miterlimit:4;stroke-opacity:1;stroke-dasharray:none"
       d="m 586.95925,162.01848 24.46932,16.05799 34.28572,40 45.71428,120 22.85714,14.28571 14.28572,65.71429 2.85714,80 -65.71428,122.85714 -22.85715,14.28572 -20,-28.57143 L 580,592.36218 l -37.14286,2.85715 -5.71428,-20 28.57143,-71.42858 5.87622,-88.35738 -31.21453,-81.61937 9.7676,-106.86653 z"
       id="rsleeve"
       inkscape:connector-curvature="0"
       sodipodi:nodetypes="cccccccccccccccccc"
       inkscape:label="#path2998" />
  </g>
</svg>
